<?xml version="1.0" encoding="utf-8" ?>
<svg xmlns="http://www.w3.org/2000/svg" xmlns:xlink="http://www.w3.org/1999/xlink" width="1024" height="1024">
	<path fill="white" d="M0 0L0 1024L1024 1024L1024 0L0 0Z"/>
	<path d="M898.525 246.574C906.656 245.371 914.789 244.435 922.865 242.848C943.1 238.869 963.703 232.409 981.997 222.758C991.224 217.891 999.638 211.837 1008.68 206.732C999.651 217.721 991.366 229.131 983.616 241.053C972.082 258.796 962.491 276.748 957.55 297.462C955.605 305.615 954.887 313.938 953.969 322.244C988.965 350.165 1016.91 377.802 1021.98 424.75C1024.4 447.143 1020.14 470.017 1010.55 490.325C1006.86 498.125 1002.2 505.418 997.685 512.754C1002.35 518.063 1005.48 524.194 1008.6 530.487C1017.98 549.423 1024.5 571.195 1023.02 592.55C1020.31 631.498 1000.81 665.983 971.526 691.271L952.686 705.742C953.989 714.924 955.64 723.825 958.515 732.665C965.872 755.29 979.322 775.324 994.658 793.307C998.559 797.88 1002.63 802.314 1006.71 806.736C1008.83 809.039 1011.67 811.511 1013.24 814.212C1005.34 810.635 997.777 806.182 989.885 802.521C961.335 789.279 930.2 778.717 898.647 776.328C897.063 814.665 885.97 854.563 858.31 882.413C844.028 896.792 825.726 906.376 805.686 909.608C798.801 910.719 791.922 910.831 784.969 910.865C774.168 930.4 759.484 947.348 740.842 959.761C723.165 971.531 701.734 979.362 680.312 979.357C671.267 979.355 662.531 977.889 653.704 976.126C648.889 980.128 644.614 984.77 639.857 988.848C626.973 999.896 611.465 1008.95 595.268 1014.07C575.2 1020.42 551.662 1019.01 531.845 1012.35C524.607 1009.92 517.949 1006.64 511.189 1003.14C499.257 1009.94 487.543 1014.7 473.862 1016.8C443.246 1021.49 415.54 1013.31 391.091 994.47C383.469 988.598 376.812 981.574 369.065 975.877C351.998 979.495 336.678 979.882 319.641 975.8C292.386 969.271 268.818 953.695 251.296 931.867C245.34 924.447 240.477 916.419 235.532 908.317C231.905 908.853 228.251 909.462 224.574 909.446C209.6 909.382 194.55 903.17 182.329 894.828C152.907 874.744 135.761 840.115 127.335 806.371C124.926 796.721 123.699 786.952 121.829 777.216C84.0551 780.952 51.9733 798.038 18.9214 815.106C23.1823 809.219 28.2926 804.052 32.4635 798.045C52.2843 769.498 64.6992 737.793 71.8822 703.938L60.1564 695.595C33.8385 675.547 12.1862 649.078 3.86572 616.534C1.78659 608.402 1.10926 600.078 0 591.784L0 584.737C1.06363 579.371 1.05708 573.725 2.05208 568.302C5.66044 548.638 14.0955 528.54 25.8632 512.347C22.072 506.404 17.9777 500.454 14.7457 494.189C3.39849 472.194 -1.34375 446.69 2.00844 422.156C3.49471 411.279 6.18445 400.587 10.5885 390.5C22.8383 362.443 45.8315 341.068 69.7706 322.837C68.4501 308.491 65.5994 294.139 60.5321 280.638C56.2468 269.22 50.1555 258.9 43.8058 248.553C34.2212 232.935 23.8975 217.909 11.3984 204.451C18.5917 209.315 25.7526 214.456 33.3009 218.75C61.5157 234.801 92.5645 242.677 124.641 245.849C129.748 204.346 140.303 161.223 174.34 133.75C191.827 119.635 213.804 114.343 235.852 116.669C246.346 96.1869 263.154 76.4957 282.237 63.6487C307.911 46.3649 339.597 39.8901 369.873 45.8798C385.786 29.7977 402.46 14.65 424.631 7.91387C447.179 1.0631 471.374 3.15534 493.25 11.5035C499.737 13.9792 505.836 17.3248 511.961 20.5682C530.061 10.9809 547.815 3.63285 568.686 4.13507C603.585 4.97484 630.698 24.5039 654.018 48.8552C670.369 44.6413 686.52 44.2239 702.981 48.2074C730.097 54.7693 755.077 73.405 772.441 94.9173C777.722 101.46 782.097 108.394 786.505 115.531L794.642 115.228C819.327 114.755 842.309 125.681 859.855 142.667C886.632 168.588 897.943 210.237 898.525 246.574ZM338.737 138.733L338.411 139.096L338.002 139.391L338.411 139.096L338.737 138.733C341.016 137.809 343.083 136.185 345.117 134.802C349.301 131.958 353.387 128.98 357.418 125.924C379.256 109.366 399.769 91.4801 420.331 73.3996C431.787 63.326 443 53.1519 453.747 42.3228C458.044 37.9933 462.696 33.6945 466.583 29L465.97 28.2953L448.931 26.9301L338.737 138.733ZM287.421 165.773L287.117 165.929L287.421 165.773L287.755 165.538C290.91 163.241 293.653 160.007 296.423 157.25C302.503 151.2 308.529 145.146 314.412 138.902C336.396 115.571 357.566 91.5567 378.948 67.6796C389.725 55.6458 400.373 41.8733 414.264 33.3057C429.852 23.6914 447.836 20.206 465.955 22.8909C477.353 24.5799 490.744 28.9361 500.223 35.6192C504.618 38.718 508.68 42.6373 512.823 46.0982L521.797 37.5373C524.354 34.9927 527.769 33.3547 530.93 31.6897C542.828 25.4241 554.986 21.9214 568.511 22.1583C599.204 22.6961 621.577 42.5369 641.708 63.6203C650.311 72.6309 658.122 82.4294 666.236 91.8779C676.245 103.533 686.498 114.943 696.812 126.329C706.588 137.12 716.354 147.875 727.016 157.811C729.606 160.225 733.034 164.191 736.217 165.695L736.497 165.924L736.217 165.695C732.578 159.855 727.299 154.458 723.039 149C717.89 142.404 713.044 135.571 707.89 128.974C702.416 121.967 696.646 115.211 691.092 108.271C684.701 100.284 678.299 92.3026 671.924 84.3027C668.596 80.1264 665.328 75.2599 661.479 71.5678C659.409 69.5814 655.281 68.0612 652.668 66.7577C677.317 60.2415 702.955 64.5211 724.861 77.1951C737.062 84.2545 748.877 95.3438 757.624 106.394C769.617 121.545 778.854 139.434 787.934 156.419C796.016 171.536 804.071 186.668 811.923 201.908C815.573 208.994 819.361 216 823.353 222.901C824.854 225.495 826.476 229.127 828.63 231.202L828.876 231.461L828.63 231.202C828.187 228.511 826.463 225.611 825.329 223.131C823.055 218.156 820.776 213.189 818.606 208.168C814.741 199.223 788.965 135.651 785.489 133.417L784.75 132.994L784.071 132.548L783.587 132.25C784.892 131.861 786.15 131.736 787.513 131.683C808.538 130.866 828.956 139.477 844.194 153.63C869.542 177.176 879.222 213.403 880.583 246.871L889.548 246.784C889.247 235.753 888.274 224.307 885.984 213.5C879.6 183.374 864.769 153.92 838.203 136.846C821.56 126.149 801.618 121.227 782.158 125.56C766.979 99.7987 747.948 77.4563 720.563 64.1505C698.628 53.4925 674.887 50.7842 651.653 58.8824C634.411 40.8382 613.434 21.6759 588.683 15.2664C567.529 9.78826 545.403 13.2711 525.926 22.6912C521.056 25.0467 516.574 28.0202 511.93 30.7776C489.434 16.3207 461.334 8.51696 434.71 14.3697C404.069 21.1055 382.527 43.7626 363.811 67.2752C351.499 82.743 340.182 98.9522 327.98 114.503C320.303 124.288 312.812 134.253 304.945 143.884C299.123 151.012 292.338 157.994 287.421 165.773ZM693.115 70.2295C697.294 77.811 702.916 84.8914 707.633 92.2004C724.07 117.669 741.29 142.438 759.044 167C765.172 175.478 771.365 183.902 777.527 192.355C780.498 196.431 783.273 200.97 786.682 204.681L786.904 204.967L786.682 204.681C784.782 198.62 780.553 192.349 777.494 186.743C769.646 172.355 761.493 158.15 753.311 143.951C745.029 129.579 736.771 115.198 728.454 100.846C724.135 93.3922 720.097 85.7492 715.348 78.5578C708.716 74.657 700.713 71.5091 693.115 70.2295ZM230.366 213.218L230.097 213.498L230.366 213.218C233.309 210.984 235.787 207.115 238.07 204.179C244.696 195.659 250.924 186.838 257.211 178.067C271.704 157.847 285.91 137.535 300.073 117.084C310.89 101.467 322.023 85.6518 331.792 69.3536L312.591 75.5648C309.944 76.625 308.812 77.6596 307.297 80.1141C302.834 87.3462 298.953 95.0293 294.811 102.455C284.285 121.328 274.066 140.384 263.144 159.032C256.195 170.899 249.213 182.786 241.957 194.466C238.199 200.515 233.161 206.705 230.366 213.218ZM813.06 144.094C817.743 159.074 824.894 173.256 830.272 187.987C834.682 200.064 838.87 212.25 843.076 224.4C844.942 229.789 846.328 236.25 849.083 241.218L849.375 241.498L849.083 241.218C848.942 238.67 847.945 235.921 847.232 233.479C845.911 228.953 844.547 224.44 843.214 219.918C837.333 199.972 832.377 179.799 824.204 160.612C822.761 157.222 821.236 153.858 819.633 150.54C818.981 149.189 818.319 147.374 817.3 146.277C816.341 145.245 814.352 144.613 813.06 144.094ZM172.917 242.222L172.626 242.44L172.917 242.222C174.303 240.464 174.944 237.35 175.783 235.218C177.997 229.589 180.251 223.974 182.524 218.368C187.629 205.78 192.902 193.258 198.009 180.674C203.155 167.994 208.132 155.592 214.203 143.309C212.702 143.89 210.95 144.466 209.711 145.525C207.839 147.124 206.33 150.246 205.086 152.364C194.146 170.977 189.176 192.496 182.237 212.75C180.172 218.779 178.016 224.777 175.969 230.812C174.733 234.454 173.214 238.374 172.917 242.222ZM179.507 268.641C174.678 271.129 170.343 274.991 165.991 278.236C156.634 285.214 147.372 292.257 138.144 299.403C126.287 308.585 113.929 317.061 102.205 326.417C104.739 311.905 105.255 295.838 101.331 281.522C100.396 278.11 99.3574 274.329 97.3221 271.409C96.6274 270.412 96.0781 269.871 95 269.337C93.8285 270.24 93.7248 271.025 93.5053 272.5C93.0921 275.276 94.2631 278.243 95.0477 280.871C96.1659 284.616 97.2335 288.398 98.1836 292.189C100.425 301.134 101.026 309.947 100.549 319.128C100.397 322.059 100.264 325.806 98.98 328.49C97.7158 331.132 94.2705 333.16 92.2182 335.25C90.0021 337.506 87.9902 340.105 86.0145 342.576C88.7006 333.896 88.9188 326.286 88.6215 317.291C88.0398 299.688 84.1795 280.675 75.8598 265.074C73.0439 259.794 69.91 255.999 65.6885 251.771C72.227 255.493 78.3442 257.498 85.5469 259.572C101.977 264.303 118.372 265.48 135.389 264.818C147.442 264.349 159.096 263.045 170.766 259.841L189.257 253.553C194.69 250.623 199.247 247.387 203.648 243.03C172.737 254.677 138.906 258.115 106.21 252.911C85.6408 249.636 66.0346 243.251 46.6986 235.705C63.9583 260.951 75.2986 287.269 78.7728 317.828C79.756 326.477 80.3971 335.743 78.7991 344.345L75.5518 356.506C79.5027 351.192 83.6636 346.025 88.4572 341.436C100.109 330.281 113.729 321.434 126.559 311.738C136.845 303.965 146.77 295.79 156.915 287.842C162.068 283.805 167.189 279.754 172.165 275.499C174.66 273.367 177.509 271.24 179.507 268.641L180.052 268.237L179.507 268.641ZM155.659 306.284C152.671 308.271 149.98 310.637 146.941 312.553C133.652 320.933 119.662 328.414 106.924 337.629C94.6617 346.499 84.0293 356.861 72.5 366.562C70.2758 368.434 67.6555 369.776 65.3975 371.639C50.5578 383.881 35.3946 399.82 31.3764 419.229L30.1072 428.313C32.6602 426.445 34.5833 423.602 36.5891 421.175C39.9591 417.096 43.3693 413.061 46.8358 409.064C54.7665 399.921 62.8737 390.998 71.3908 382.393C88.92 364.681 108.832 349.734 128.039 333.933C134.509 328.611 141.659 323.415 147.606 317.532C150.568 314.601 154.207 310.228 155.659 306.284L155.889 306.079L155.659 306.284ZM835.894 767.77L835.61 767.997L835.894 767.77L919.113 698.782C916.29 711.852 917.634 724.975 921.244 737.768C922.785 743.23 924.775 748.979 927.821 753.798C929.042 755.729 930.733 757.313 932.355 758.902L932.206 758.302C930.473 751.523 927.857 744.982 926.077 738.183C922.413 724.186 922.226 710.363 922.574 696.017L931.738 687.646C932.483 708.566 935.56 729.236 942.516 749.045C944.629 755.063 947.42 760.779 949.717 766.716C943.644 765.198 937.555 763.192 931.416 762.019C896.756 755.394 860.54 759.826 829.92 778.011C827.903 779.209 825.244 780.895 823.797 782.747L823.513 782.955L823.797 782.747C836.477 777.682 850.36 772.623 863.75 770.014C899.878 762.974 939.208 771.305 972.648 785.625L979.235 788.721L979.472 788.948L979.235 788.721C977.608 785.403 974.583 782.15 972.42 779.064C966.822 771.073 961.428 762.978 957.439 754.039C949.494 736.236 945.363 718.306 943.883 698.894C943.165 689.475 942.91 679.508 946.293 670.594C921.288 694.101 894.394 715.398 868.467 737.86C861.074 744.265 853.68 750.611 846.518 757.277C842.878 760.665 839.113 763.968 835.894 767.77ZM832.605 787.29L832.013 788C829.873 790.664 828.399 794.309 826.79 797.344C823.657 803.254 820.507 809.146 817.194 814.957C806.611 833.518 796.035 852.043 785.707 870.75C777.717 885.221 770.371 900.311 760.836 913.852C743.132 938.994 715.561 957.204 684.908 961.326C675.04 962.653 665.127 962.659 655.212 961.915C663.582 953.401 670.417 943.069 677.524 933.5C689.389 917.524 701.106 901.428 713.144 885.581C718.261 878.844 723.511 872.213 728.785 865.6C731.273 862.481 735.04 858.771 736.755 855.244L737.084 854.909L737.415 854.555L737.084 854.909L736.755 855.244L735.957 855.77C733.218 857.645 730.682 860.829 728.372 863.235C723.443 868.372 718.518 873.515 713.63 878.692C696.635 896.697 680.126 914.959 663.75 933.528C639.422 961.114 617.052 992.438 578.078 998.544C569.35 999.912 560.595 1000.26 551.841 998.819C540.674 996.985 530.18 992.546 520.203 987.332L624.881 909.515C625.744 908.949 625.421 909.188 626.211 908.345L626.497 908.104L626.211 908.345C618.967 910.355 611.264 914.707 604.666 918.232C583.822 929.37 563.566 942.928 544.446 956.812C533.606 964.684 523.063 973.332 511.848 980.632C489.58 964.237 467.447 947.869 444.279 932.732C432.998 925.361 420.338 915.229 406.784 912.86L406.502 912.616L406.784 912.86C408.262 914.72 410.655 916.179 412.535 917.643C416.587 920.797 420.629 923.965 424.632 927.179C440.16 939.647 455.604 952.307 471.455 964.361C481.81 972.235 492.539 979.616 502.971 987.396C491.411 993.204 479.489 998.616 466.464 999.855C449.817 1001.44 428.829 997.166 414.494 988.374C403.194 981.443 394.49 971.783 385.838 961.907C377.417 952.293 369.225 942.406 360.597 932.983C348.868 920.173 336.613 907.779 324.413 895.421C311.476 882.317 298.747 869.401 284.514 857.68L285.062 858.485C290.111 865.793 297.175 872.12 303.011 878.884C311.479 888.699 319.357 899.072 327.591 909.09C358.54 946.747 388.144 999.132 440.621 1008.05C465.834 1012.33 490.541 1006.91 511.42 992.175C527.62 1003.95 547.183 1009.9 567.25 1009.44C601.52 1008.66 627.852 989.716 650.758 966.011C657.043 967.287 663.186 968.998 669.571 969.783C680.075 971.075 690.845 970.179 701.152 967.921C726.311 962.41 749.861 944.754 765.606 924.737C771.352 917.433 776.101 909.277 781.093 901.443C788.011 901.746 795.167 902.052 802.056 901.184C815.352 899.508 828.81 894.031 839.763 886.39C867.027 867.372 881.975 833.412 887.511 801.456C888.237 797.27 891.1 778.055 889.121 775.25L885.5 775.035C884.034 776.039 883.903 782.548 883.633 784.562C882.014 796.612 878.934 809.54 874.775 820.966C866.92 842.547 853.901 863.884 834.917 877.375C827.486 882.656 818.987 886.491 810.428 889.528C805.981 891.105 801.476 892.439 796.876 893.49C792.448 894.502 787.688 895.196 783.545 897.119C786.444 890.741 789.682 884.522 792.564 878.138C802.581 855.951 812.137 833.526 821.941 811.241C823.958 806.657 825.91 802.016 828.07 797.5C829.637 794.222 831.875 790.854 832.605 787.29L832.874 787.002L832.605 787.29ZM790.655 816.739L790.203 817.151C786.807 820.531 784.132 824.865 781.133 828.621C770.896 841.444 761.3 854.581 751.715 867.891C739.551 884.782 727.422 901.731 715.549 918.827C707.657 930.192 699.45 941.764 692.529 953.741C701.338 951.709 709.03 947.392 717.31 943.975C721.589 937.45 725.013 930.486 728.739 923.642C733.591 914.729 738.636 905.928 743.474 897C750.941 883.223 759.153 869.767 766.959 856.17C771.449 848.349 776.067 840.554 780.843 832.904C783.896 828.014 788.175 822.514 790.203 817.151L790.655 816.739L790.881 816.003L790.655 816.739ZM818.36 878.301L818.089 878.446L818.36 878.301C822.839 876.954 828.365 871.822 831.75 868.549C850.606 850.318 859.592 823.732 864.846 798.61C866.33 791.516 867.935 784.401 868.057 777.126C865.404 786.283 863.637 795.597 860.624 804.706C854.275 823.903 845.044 840.866 833.821 857.601C828.984 864.814 824.208 871.851 818.36 878.301ZM566.965 27.2011L556.728 28.4363C570.467 43.4302 585.499 57.2644 600.522 70.9506C617.073 86.0293 633.716 100.125 651.281 114.002C659.849 120.771 668.291 127.546 677.26 133.787C679.379 135.128 681.422 136.483 683.743 137.458L574.579 27.0914L566.965 27.2011ZM497.501 41.0128L395.126 117.875C398.795 116.562 402.498 115.277 405.964 113.479C416.202 108.716 425.91 102.98 435.579 97.1758C450.296 88.3429 464.475 79.0782 478.405 69.0385C488.528 61.7423 498.241 53.8711 508.679 47.0137L497.501 41.0128ZM526.606 41.423L515.075 47.5298C524.046 52.8749 532.27 59.6904 540.75 65.7819C553.517 74.953 566.732 83.5242 579.915 92.0803C590.857 99.1818 601.929 106.908 613.931 112.125L622.716 114.798C615.4 109.009 607.446 103.963 599.994 98.3187C579.756 82.9905 559.719 67.304 539.795 51.5696C536.993 49.3568 534.18 47.1527 531.407 44.9035C529.942 43.7151 528.378 42.0553 526.606 41.423ZM345.706 52.216C314.707 53.508 286.427 67.0693 265.426 89.9518C241.82 115.673 231.198 148.224 218.795 180.036C211.509 198.723 203.986 217.312 196.664 235.984C200.393 231.101 202.956 224.863 205.703 219.374C216.271 198.663 226.458 177.8 236.821 156.99C242.767 145.05 248.153 132.422 254.769 120.88C269.434 95.2922 291.44 75.2771 319.702 66.2223C333.268 61.8756 347.2 60.5876 361.257 62.7382L366.648 54.1046C359.77 52.5734 352.759 51.9188 345.706 52.216ZM510.851 69.8477C503.981 75.0494 497.145 80.3335 490.05 85.2275C482.867 90.1827 474.754 94.7358 468.4 100.713L512.365 97.6947C526.247 97.8426 540.899 98.0643 554.588 100.382C552.184 98.1558 512.288 69.9491 510.851 69.8477ZM496.636 111.279C460.459 112.216 424.573 119.272 390.27 130.603C324.999 152.165 266.165 189.022 218.813 238.906C177.235 282.707 145.509 336.044 127.22 393.655C123.622 404.989 120.969 416.419 118.349 428.002C111.431 458.592 107.649 490.599 108.56 522C109.793 564.514 119.048 607.309 133.831 647.092C138.696 660.185 143.57 673.224 149.546 685.867C170.66 730.538 201.044 770.254 237.018 803.94C261.056 826.449 288.235 845.036 317.024 860.906C335.758 871.232 355.375 881.029 375.389 888.609C423.314 906.76 475.027 914.209 526.125 912.529C631.648 908.924 734.289 858.749 805.829 781.843C826.34 759.794 845.054 735.643 860.475 709.756C888.875 662.078 906.724 607.783 912.304 552.623C913.923 536.615 915.071 520.692 914.439 504.587C912.73 461.039 905.147 417.448 890.203 376.435C881.302 352.006 869.841 328.843 856.608 306.5C845.541 287.814 832.922 269.374 818.822 252.831C807.101 239.079 793.672 226.281 780.373 214.048C770.371 204.847 759.39 196.704 748.417 188.712C675.842 135.855 587.251 107.326 497.274 111.251L496.636 111.279ZM396.133 117.25L396.745 117.25L396.133 117.25ZM221.546 124.701C198.738 127.094 180.555 137.092 166.018 155C150.245 174.431 141.893 199.363 137.176 223.668C135.721 231.167 134.885 238.818 133.727 246.371L140.882 246.343L141.678 239.607C147.402 203.687 160.503 166.645 191.25 144.581C203.281 135.947 217.483 132.518 232.153 132.875L234.777 125.705C230.234 124.72 226.191 124.424 221.546 124.701ZM197.677 150.913C193.924 153.701 190.21 156.282 187.447 160.133C183.545 165.571 180.768 172.037 178.291 178.225C174.399 187.95 171.256 197.803 168.199 207.813C164.768 219.048 160.946 230.991 159.201 242.621L159.047 243.75L159.671 244.174C167.366 211.128 181.336 180.689 198.379 151.5L197.677 150.913ZM826.357 150.979L826.546 151.402C830.475 159.97 835.662 168.131 839.749 176.703C846.596 191.062 852.312 205.992 856.513 221.339C858.592 228.935 860.041 236.616 861.702 244.305L862.844 244.54C862.522 237.537 860.981 230.566 859.648 223.693C856.093 205.375 851.301 186.082 842.502 169.516C839.949 164.71 837 159.542 832.974 155.807C830.924 153.905 828.796 152.349 826.357 150.979ZM974.64 236.514C967.393 239.166 960.167 242.045 952.8 244.343C917.756 255.277 881.73 260.262 845.942 249.499C836.868 246.771 828.187 242.858 819.542 239.016C845.526 260.758 880.936 267.269 913.966 264.284C927.014 263.105 939.993 259.798 952.275 255.287C941.887 273.543 935.912 292.183 934.833 313.235C934.368 322.326 934.701 331.516 936.887 340.396C932.958 335.68 929.441 332.336 924.905 328.358C923.049 320.94 922.513 313.136 923.198 305.513C923.697 299.967 924.755 294.332 925.987 288.904C927.133 283.854 929.831 277.503 928.982 272.25C928.783 271.022 927.982 270.216 927.172 269.34C924.758 270.525 923.331 274.225 922.515 276.75C917.765 291.464 918.28 309.827 920.781 324.838C895.924 305.26 869.707 287.043 847.25 264.581L847.102 265.25C851.778 271.984 859.408 278.178 865.475 283.688C874.887 292.234 884.38 300.75 894.392 308.593C901.059 313.815 907.739 319.009 914.521 324.08C922.54 330.076 930.879 336.146 937.652 343.575C941.749 348.067 945.024 353.26 948.24 358.393C947.2 354.29 945.981 350.106 945.376 345.917C942.177 323.782 945.914 298.449 953.685 277.633C957.696 266.892 963.381 256.325 969.25 246.503L975.27 236.723L974.64 236.514ZM870.286 305.838C872.236 309.367 874.349 312.727 877.062 315.73C883.61 322.98 891.976 329.531 899.411 335.928C917.22 351.252 936.022 366.023 953.001 382.238C967.577 396.158 980.093 412.015 993.75 426.814L994.429 426.368C993.719 422.084 993.042 417.671 991.647 413.546C985.626 395.737 972.52 381.399 957.488 370.6C956.585 369.951 955.756 369.404 954.75 368.933L954.319 369.165C953.756 369.449 953.246 369.596 952.64 369.75C950.308 367.524 948.807 364.455 946.683 362.002C943.508 358.335 939.559 355.035 935.912 351.822C920.891 338.59 903.718 329.042 887.339 317.75C883.571 315.152 879.84 312.5 876.154 309.787C874.426 308.515 872.29 306.489 870.286 305.838ZM953.288 332.8L953.545 344.513C980.593 365.368 997.087 395.478 1001.47 429.25C1003.43 444.319 1002.02 463.677 996.224 477.828C994.867 467.522 991.827 457.579 986.492 448.612C976.561 431.921 960.602 418.035 946.626 404.736C935.871 394.501 925.213 384.102 913.422 375.041C908.671 371.39 904.244 368.144 898.7 365.81C904.533 373.418 912.306 380.277 919.169 386.994C935.013 402.692 949.922 418.845 963.739 436.378C976.506 452.578 992.559 472.383 992.874 494.05L992.393 504.417C997.573 498.121 1001.1 490.96 1004.25 483.489C1011.92 465.285 1015.14 446.511 1013.2 426.791C1012.4 418.717 1011.13 410.512 1008.64 402.781C999.858 375.584 980.846 354.971 959.156 337.277L953.288 332.8ZM70.4669 333.451C49.072 348.125 28.5393 370.583 18.453 394.611C15.402 401.879 13.4397 409.76 12.0177 417.5C6.35465 448.323 12.8999 478.57 30.9869 504.25L37.006 512.059L33.0528 517.471C43.1765 547.35 66.9352 569.19 89.2496 590.314C96.5762 597.249 103.937 604.986 111.899 611.109C100.216 593.617 84.7306 579.06 72.4695 561.937C67.722 555.307 63.2369 548.478 59.1519 541.419C53.3391 531.375 48.2049 521.36 41.1435 512.09C53.3536 496.318 60.9759 477.633 72.7513 461.445C81.0326 450.061 90.3754 439.202 99.4965 428.493C103.829 423.407 109.275 418.198 112.705 412.476L102.459 421.305C88.4539 434.509 74.5654 447.295 61.7502 461.704C56.5374 467.564 51.3493 473.398 46.8888 479.868C41.3312 487.929 36.9457 496.771 32.1303 505.286C31.4125 502.626 30.5482 499.806 30.3944 497.048C29.8139 486.634 35.4521 474.406 40.5276 465.628C49.6476 449.855 62.3076 435.395 74.1386 421.628C82.3713 412.048 90.5097 402.316 99.4258 393.356C105.129 387.625 110.948 382.003 116.768 376.389C120.432 372.856 124.467 369.448 127.417 365.288C115.154 371.377 104.21 381.163 93.9134 390.095C75.4845 406.083 56.5538 423.214 42.0802 442.973C37.0551 449.833 32.93 457.191 30.247 465.272L26.9267 477.957C25.3811 473.566 24.6533 469.056 23.7552 464.509C18.5351 438.078 23.2968 411.757 34.946 387.581C39.5042 378.122 45.3658 369.238 52.4768 361.498C57.8268 355.674 63.9095 350.615 69.7552 345.308C70.3336 341.81 71.3326 336.904 70.4669 333.451ZM913.26 413.312C913.725 415.053 914.141 417.15 915.257 418.6C919.089 423.579 924.459 428.071 928.806 432.651C935.452 439.653 941.687 447.315 947.432 455.072C960.733 473.03 969.672 493.349 982.207 511.757C971.97 529.07 962.56 546.959 950.974 563.421C945.597 571.06 939.847 578.43 933.467 585.264C929.746 589.251 925.928 593.153 922.153 597.089C920.358 598.96 917.936 601.025 916.581 603.245C915.587 604.874 915.232 607.737 914.786 609.606L922.48 602.837C948.513 579.269 979.234 552.247 990.467 517.902L987.581 512.247C988.661 510.174 989.675 508.152 991.093 506.282C979.623 475.464 956.361 452.741 933.126 430.451C927.397 424.956 920.481 416.787 913.26 413.312ZM927.193 466.351L927.259 467.003C928.136 474.88 930.448 482.603 931.476 490.5C934.408 513.017 932.583 535.846 928.374 558.073L939.404 544.122L958.187 513.485C951.909 500.733 945.053 488.484 936.646 476.991C933.954 473.312 930.991 468.941 927.193 466.351ZM93.879 466.916C83.2616 480.84 74.4839 497.122 65.9247 512.389C71.0594 522.983 77.7649 533.02 84.3819 542.758L94.7545 556.819C93.2437 544.658 91.9007 532.326 91.6327 520.066C91.2633 503.163 92.5422 486.596 94.2059 469.798C94.3207 468.64 94.7269 467.808 93.879 466.916ZM30.3117 520.839C13.6028 546.79 4.59639 577.593 11.1452 608.296C17.5012 638.095 33.8982 661.975 56.5235 681.893C62.1104 686.811 67.6388 691.571 73.9076 695.62L74.0214 681.462C69.2877 679.187 65.2506 675.402 61.3687 671.906C45.5085 657.623 33.8942 641.041 26.7767 620.81C18.4161 597.045 18.7588 571.435 26.9584 547.669L27.5 546.837C28.4385 548.154 28.5795 550.038 28.9436 551.617C29.679 554.807 30.435 557.985 31.4368 561.104C32.8832 565.608 34.7599 569.784 37.2053 573.836C42.8681 583.22 50.2812 591.579 57.5103 599.78C73.4748 617.89 90.4634 634.844 109.281 650.007C115.871 655.318 123.388 661.491 130.951 665.287C121.901 654.439 111.387 644.945 101.761 634.633C86.609 618.401 72.6152 601.783 58.7807 584.414C49.8274 573.173 39.8076 561.044 34.6034 547.5C31.5491 539.551 30.5714 530.83 30.5649 522.368C30.5642 521.446 30.5923 521.812 30.3117 520.839ZM992.714 520.851C993.05 529.403 992.934 537.007 990.226 545.258C984.96 561.309 972.795 575.285 962.404 588.305C952.921 600.187 943.209 611.974 932.898 623.15L899.503 654.625L898.27 660.069C924.851 640.661 949.094 619.637 970.755 594.758C976.898 587.702 983.352 580.526 987.846 572.281C992.257 564.188 994.011 556.129 996.348 547.308L999.248 556.975C1001.63 567.543 1003.58 578.69 1003.25 589.572C1003.07 595.299 1001.83 601.401 1000.54 606.977C997.076 621.966 991.457 635.975 983.25 649.016C977.64 657.929 970.606 665.374 963.04 672.621C959.5 676.012 955.855 679.679 951.48 681.957C950.933 686.797 951.099 691.599 951.595 696.439C959.413 689.969 967.386 683.647 974.553 676.445C996.338 654.553 1010.8 627.035 1013.82 596.062C1015.79 575.916 1010.58 554.38 1002.04 536.249C999.755 531.406 997.268 526.236 993.896 522.042C993.528 521.584 993.151 521.24 992.714 520.851ZM29.4413 594.234C31.3405 603.871 34.4247 613.262 39.3077 621.822C50.1272 640.79 67.8989 656.673 84.2139 670.81C92.9263 678.359 101.665 685.887 111.25 692.328C121.441 699.176 132.875 705.972 144.387 710.302C146.468 711.085 148.979 712.371 151.197 712.534C138.429 701.963 125.049 692.208 112.259 681.679C101.012 672.422 90.5453 662.22 80.1796 652C69.9274 641.891 59.9285 631.976 51.0602 620.582C45.8668 613.91 40.6672 607.261 35.3002 600.726C33.764 598.856 31.5746 595.334 29.4413 594.234ZM993.203 594.876C984.273 604.762 976.97 615.562 968.536 625.797C957.611 639.055 944.96 651.031 931.884 662.132C918.427 673.555 904.206 684.132 890.427 695.179C886.946 697.97 882.678 700.486 879.472 703.47C877.562 705.246 876.076 708.06 874.7 710.281L874.883 711.061C884.074 704.679 894.129 699.82 903.594 693.871C912.653 688.177 921.957 682.455 930.582 676.124C941.862 667.844 952.093 658.733 962.027 648.882C976.444 634.586 990.315 617.743 993.447 597.004C993.563 596.236 993.432 595.603 993.203 594.876ZM77.7014 670.292C83.7429 689.243 80.4216 709.249 75.1389 728C70.35 744.999 63.4999 761.777 55.4243 777.487L47.8824 790.955C55.6783 787.068 63.5609 783.101 71.6973 779.978C106.33 766.683 141.093 763.881 176.615 775.578L197.187 783.654C192.96 779.143 188.913 774.968 183.75 771.492C168.589 761.284 148.081 757.585 130.102 757.018C110.905 756.412 91.4039 760.904 73.4616 767.482C80.7204 749.78 86.5248 731.92 89.5568 713C91.0917 703.422 92.2704 693.901 90.5794 684.268L77.7014 670.292ZM104.301 698.318C103.465 711.884 101.476 724.64 97.75 737.755C95.6553 745.129 92.3803 752.427 91.1924 759.999C95.3936 756.135 97.4475 751.711 99.6273 746.503C105.575 732.289 106.671 718.565 107.972 703.512L128.732 719.909C136.721 725.678 144.941 731.061 153.427 736.072C159.116 739.431 164.834 742.809 171.113 744.944C162.797 737.34 153.331 731.802 143.896 725.741C135.92 720.617 128.086 715.276 120.232 709.97C114.714 706.241 109.276 702.787 104.301 698.318ZM130.702 776.66L129.623 777.5C130.056 783.475 132.141 789.968 133.565 795.822C141.053 826.616 154.22 859.115 178.635 880.389C193.468 893.314 211.765 901.656 231.579 902.263L232.528 901.75C231.986 898.784 230.868 895.894 229.929 893.033C222.166 892.03 214.798 890.696 207.5 887.75C193.525 882.108 181.046 870.847 171.917 859.015C157.417 840.224 148.918 819.045 142.426 796.422C140.55 789.886 139.404 782.83 137.133 776.472L130.702 776.66ZM851.68 781.374C849.835 785.854 848.863 790.695 847.355 795.304C844.461 804.152 841.21 812.953 837.647 821.553C831.076 837.416 824.212 853.294 817.313 869.02C815.783 872.508 811.929 877.908 811.607 881.535C818.018 873.465 823.279 865.408 827.859 856.143C833.217 845.306 837.263 833.477 840.944 821.979C843.852 812.894 846.747 803.75 849.079 794.5C850.034 790.713 852.023 785.265 851.68 781.374ZM170.418 781.869C171.046 787.279 173.593 793.189 175.332 798.397C183.313 822.298 192.239 847.08 203.889 869.435C205.299 872.141 207.504 877.451 209.945 879.307C211.284 880.326 213.348 880.991 214.907 881.633C210.57 870.906 204.672 860.63 199.936 850.016C196.253 841.761 192.641 833.489 189.223 825.12C184.614 813.832 180.363 802.477 175.451 791.311C174.228 788.53 172.822 783.596 170.418 781.869ZM155.013 782.88C159.039 806.077 178.55 861.438 199.185 874.192C199.828 874.589 199.87 874.578 200.475 874.801C192.284 859.462 182.666 844.904 174.943 829.289C167.707 814.657 162.466 799.297 156.132 784.315C155.822 783.582 155.667 783.318 155.013 782.88ZM194.818 793.868C202.047 810.336 210.35 826.279 217.236 842.928C226.274 864.779 234.005 887.395 245.736 908.026C259.169 931.652 280.75 952.625 306.287 962.596C317.751 967.071 329.883 970.234 342.25 970.417C350.245 970.535 358.485 969.191 366.327 967.784C366.288 965.54 362.176 961.557 360.839 959.478C354.361 960.339 347.801 961.309 341.25 961.126C320.665 960.553 299.585 951.014 283.42 938.728C258.025 919.427 246.971 886.879 232.957 859.365C224.467 842.695 215.414 826.144 205.713 810.151C203.569 806.615 201.381 803.111 199.177 799.612C197.904 797.589 196.767 795.307 194.818 793.868ZM227.675 815.895C232.652 822.974 238.358 829.435 243.169 836.659C267.238 872.8 288.461 911.074 311.297 948.02L333.602 954.774C315.579 928.366 296.715 902.489 277.739 876.762C265.179 859.734 252.706 842.28 238.462 826.596C235.202 823.007 231.65 818.673 227.675 815.895ZM682.908 885.06C668.44 895.858 654.691 907.627 640.881 919.247C623.395 933.959 605.988 948.696 588.83 963.792C582.615 969.26 576.448 974.775 570.293 980.311C566.026 984.149 560.709 988.5 557.503 993.25L558.615 993.859C565.61 994.358 571.537 994.731 578.477 993.322C602.306 967.228 626.373 940.954 651.38 915.986C658.569 908.807 665.858 901.68 673.225 894.685C675.46 892.563 677.752 890.5 680.032 888.427C681.089 887.465 682.485 886.479 683.14 885.205L682.908 885.06ZM346.332 891.973L447.875 993.86C454.379 994.549 460.168 994.071 466.626 993.458C466.069 991.006 460.516 986.778 458.475 984.807C446.531 973.269 433.812 962.507 421.304 951.588C407.467 939.509 393.702 927.261 379.396 915.739C369.582 907.835 359.304 899.772 348.646 893.024C347.88 892.539 347.19 892.246 346.332 891.973ZM466.927 923.361L512.191 955.667L540.629 935.466L557.297 923.771C547.044 925.627 536.553 926.332 526.157 926.78C506.498 927.629 486.342 926.871 466.927 923.361Z"/>
	<path d="M531.715 892.064L529.384 892.287C514.799 893.223 500.088 892.511 485.529 891.479C400.211 885.435 322.375 849.74 258.073 794.099C182.676 728.858 140.045 634.66 133.006 535.891C126.099 438.965 159.901 339.923 223.577 266.702C281.154 200.495 360.097 154.356 446.5 138.171C462.137 135.242 477.974 133.828 493.826 132.713L494.885 132.629C571.219 128.188 649.108 150.55 713.793 190.623C731.362 201.507 748.47 213.706 763.921 227.463C811.259 269.61 849.075 325.261 870.003 385.177C876.11 402.661 880.489 421.113 884.163 439.25C887.819 457.301 890.591 475.859 891.624 494.264C892.7 513.437 892.924 532.615 890.997 551.75C883.115 630.008 848.017 703.836 795.782 762.243C787.254 771.779 778.466 781.232 769.012 789.859C752.139 805.259 733.249 819.064 714.061 831.441C689.909 847.02 664.837 860.461 637.85 870.524C603.851 883.201 567.882 890.034 531.715 892.064ZM527.477 433.845L526.974 435.887C523.022 453.624 532.343 472.429 541.724 486.908L541.927 487.498L541.724 486.908C541.316 483.294 539.868 479.588 539.068 476.012C537.467 468.862 535.825 461.733 534.325 454.561C532.838 447.456 531.722 439.647 528.33 433.154L527.477 433.845ZM543.126 491.336L543.298 491.801C543.582 495.152 544.133 498.55 545.593 501.597C545.696 498.17 544.876 494.838 543.298 491.801L543.126 491.336ZM756.804 608.373C759.906 609.92 762.62 611.992 765.503 613.897C773.505 619.184 780.1 624.107 786.142 631.677C788.062 634.082 790.141 636.779 791.23 639.69C792.208 642.307 792.018 645.851 790.816 648.364C789.241 651.654 786.283 654.597 783.763 657.163C768.071 673.136 746.262 683.286 725.121 689.821C701.006 697.276 674.787 699.048 649.667 698.611C630.944 698.285 612.681 696.936 594.162 694.078C543.343 686.233 494.467 669.094 446.005 652.414C407.274 639.083 368.624 625.759 330.232 611.467C296.914 599.064 262.352 588.358 230.857 571.673C227.708 570.004 224.91 568.356 223.018 565.25L222.539 564.487L222.23 563.973L218.808 574.595C218.353 576.127 218.874 577.674 219.25 579.172C222.121 583.028 229.694 586.129 233.936 588.263C263.53 603.146 294.998 613.81 325.827 625.76C352.344 636.039 378.802 646.689 405.59 656.245C430.001 664.953 454.847 673.513 479.718 680.79C512.982 690.524 546.85 698.891 581.163 703.937C601.302 706.899 621.863 709.019 642.228 709.124C659.479 709.213 677.011 707.583 694.094 705.211C720.278 701.575 745.102 696.056 768.98 684.35C776.152 680.833 783.375 677.045 789.798 672.267C796.338 667.402 800.628 662.331 803.619 654.699C802.031 648.925 798.658 644.409 795.32 639.537C786.595 626.803 777.206 615.12 763.54 607.401C739.783 593.982 712.877 590.509 687.057 583.035C668.845 577.763 651.958 570.347 634.894 562.16C628.287 558.989 622.066 555.391 615.808 551.594C611.758 549.136 607.463 546.731 603.978 543.496L592.31 548.629C601.076 554.957 609.435 561.828 618.408 567.87C639.013 581.744 662.869 592.444 686.869 598.854C678.948 598.643 670.615 596.507 662.979 594.489C649.923 591.039 637.116 586.278 624.884 580.573C610.854 574.03 598.486 566.959 587.763 555.627L587.171 555C588.465 557.465 590.08 560.097 590.844 562.776C594.319 574.956 591.27 587.641 588.602 599.619C587.921 602.679 586.419 606.887 586.577 609.997C587.047 609.309 587.143 608.748 587.373 607.946C589.689 599.884 593.471 592.441 595.331 584.159C595.39 588.007 594.435 591.751 593.668 595.504C592.621 600.627 591.574 605.764 590.4 610.86C589.876 613.139 588.437 616.747 588.791 618.927C590.406 613.596 592.826 608.512 594.701 603.256C595.62 600.679 596.564 598.1 597.416 595.5C598.023 593.647 598.287 591.737 599.279 590.033L592.94 620.75L593.303 620.969L603.318 590.446L597.53 621.75L597.797 621.997L606.357 595.529L599.8 630.288L609.802 597.896C609.63 604.476 608.329 611.029 607.109 617.484C606.37 621.398 605.601 625.297 605.095 629.25C604.945 630.418 604.566 631.846 604.806 633L613.821 599.13C612.312 612.56 609.35 626.346 609.179 639.857L617.852 603.142L617.899 603.754C618.217 609.22 616.846 615.003 616.343 620.464C615.663 627.835 615.515 635.075 615.245 642.458L621.527 605C621.669 604.059 621.816 603.565 622.272 602.75L622.191 603.5L620.739 645.917L621.266 645.936C621.63 632.954 623.444 618.997 626.994 606.497L627.261 606.5L627.203 607.041L626.704 646.72L626.832 646.134L630.799 610.539C630.953 609.787 630.838 610.058 631.264 609.5L631.219 610.131C630.94 614.73 631.969 648.651 633.265 650.497L635.233 610.585L639.305 648.497L639.557 616.361L645.252 651.307C645.637 646.467 644.979 641.785 644.599 636.972C644.046 629.971 643.482 622.539 643.703 615.526C644.608 622.22 646.739 628.798 648.224 635.395C649.584 641.437 650.397 647.664 651.853 653.656C652.024 654.358 651.862 654.12 652.281 654.5L648.599 618.338L660.371 660.407L654.389 620.55C657.971 628.065 661.54 635.727 664.214 643.619C666.86 651.43 668.614 659.667 670.218 667.75C670.699 663.99 669.708 659.554 669.115 655.82C668.034 649.015 667.012 642.21 665.335 635.523C664.325 631.497 662.802 627.58 661.841 623.579C668.073 633.14 674.667 644.191 678.254 655.022C680.142 660.725 681.187 666.623 682.996 672.31C682.54 663.105 680.099 654.141 677.386 645.377C675.379 638.896 673.329 632.545 670.199 626.502L670.539 626.865C678.431 635.406 686.541 646.254 690.998 657C692.806 661.361 693.892 666.181 695.803 670.426C695.923 667.548 694.908 664.668 694.201 661.898C691.73 652.208 687.608 642.51 683.142 633.553C681.992 631.246 680.452 629.128 679.334 626.827C693.712 639.328 703.025 654.463 708.58 672.545C708.161 664.167 704.711 656.374 701.356 648.809C699.42 644.443 697.567 639.949 695.257 635.771C693.602 632.779 691.223 629.948 689.85 626.863C692.785 628.607 695.218 631.598 697.554 634.089C703.535 640.468 709.437 647.196 713.73 654.852C716.278 659.398 717.982 664.192 720.14 668.904L720.406 669.497L720.14 668.904C719.616 664.138 717.863 659.333 716.149 654.88C713.174 647.153 709.486 639.686 704.768 632.861C702.156 629.082 699.109 625.522 696.333 621.852C705.58 630.631 716.672 639.739 724.023 650.167C727.624 655.275 729.867 661.068 733.26 666.18L733.753 666.902L733.969 667.497L733.753 666.902C733.443 663.448 731.495 659.931 730.044 656.812C726.39 648.956 722.317 641.159 717.317 634.065C715.115 630.942 712.37 628.311 710.134 625.225L709.847 624.821C713.534 626.83 716.792 629.781 719.934 632.539C726.965 638.713 733.662 645.888 739.11 653.523C741.251 656.525 742.924 660.098 745.22 662.933L745.616 663.736L745.984 664.497L745.616 663.736L745.22 662.933C743.995 658.237 741.452 653.942 739.008 649.79C735.355 643.584 731.433 637.553 727.007 631.866C724.666 628.858 721.729 626.136 719.872 622.804C723.068 624.761 725.878 627.539 728.735 629.964C734.543 634.893 740.43 639.739 745.578 645.386C748.807 648.927 751.58 652.862 754.729 656.472L755.113 657.22L755.497 657.997L755.113 657.22L754.729 656.472C753.695 652.947 751.424 649.582 749.477 646.5C743.002 636.249 734.871 628.121 727.172 618.904C742.281 629.17 754.35 639.339 765.187 654.172L765.402 654.497L765.187 654.172C763.76 648.536 759.872 643.355 756.508 638.696C753.105 633.982 749.739 629.283 745.565 625.207C742.565 622.277 738.591 619.679 735.943 616.497L735.378 615.8C739.588 617.538 743.447 620.331 747.15 622.954C754.011 627.813 760.79 633.202 766.719 639.179C769.189 641.67 771.203 644.854 773.742 647.189L773.954 647.474L773.742 647.189C773.141 644.843 771.256 642.411 769.979 640.361C762.48 628.322 752.797 618.424 742.048 609.289C746.15 610.759 749.831 613.487 753.4 615.93C764.191 623.319 772.82 630.548 780.256 641.389L780.602 642.254L780.874 642.497L780.602 642.254L780.256 641.389C776.424 628.251 765.734 618.154 756.804 608.373ZM229.626 658.503L229.933 658.76L229.956 659.231C230.326 665.026 232.152 671.32 233.978 676.836C237.378 687.103 241.797 696.967 247.018 706.436C249.236 710.459 252.013 714.189 254.119 718.262C255.192 720.337 255.2 725.366 256.5 726.495L257.799 725.193C258.047 726.169 258.145 727.001 258.25 727.988L258.372 728.817L257.633 728.884C255.885 729.056 254.638 729.062 253.25 730.189C250.436 727.595 247.907 724.667 245.041 722.156C230.188 709.14 213.522 702.335 194.822 696.869C196.563 699.136 199.322 703.396 202.25 703.894C202.25 702.892 202.089 702.827 201.603 702L202.255 701.75L205.75 705.404L206.451 704.75L206.038 703.25L206.5 702.967C208.459 704.087 209.47 705.583 210.75 707.366C211.46 706.236 211.207 706.83 211.531 705.596L212.276 705.75L212.793 706.625C213.651 708.004 214.944 708.832 216.25 709.745L216.455 709.29C216.804 708.558 216.67 708.821 217.25 708.077L217.544 708.58C218.396 710.019 219.192 711.115 220.378 712.291L221.5 711.501C222.547 712.535 223.57 713.475 224.75 714.356L225.756 714.25C226.826 715.099 227.883 716.088 229.139 716.632C231.498 717.653 238.863 725.446 240.42 724.997L240.825 724.25C241.125 724.826 241.253 725.292 241.469 725.888C242.491 728.707 248.265 732.834 250.829 734.776L250.518 733.959L250.168 732.75L251.25 731.03C252.14 731.988 252.559 732.481 252.918 733.75L252.69 734.266C252.376 735.191 252.575 735.827 252.759 736.75C255.643 740.292 259.009 743.282 262.234 746.497C263.899 748.156 265.347 750.212 267.14 751.703L267.375 751.936L267.14 751.703C266.515 747.532 264.325 743.686 262.947 739.718C261.864 736.596 261.261 733.298 259.996 730.248L259.506 729C259.444 728.488 259.529 727.961 259.429 727.455L259.265 726.726C258.986 725.432 258.73 724.299 258.153 723.095C257.214 721.138 256.619 719.006 255.609 717.096C254.081 714.205 251.952 711.551 250.299 708.707C246.833 702.746 243.808 696.323 241.147 689.956C238.712 684.127 236.446 678.157 234.518 672.142C233.101 667.717 232.002 662.932 229.933 658.76L229.626 658.503ZM285.194 678.581C283.187 681.479 281.976 685.065 280.596 688.311C274.581 702.462 270.883 717.131 265.739 731.565C264.377 726.432 263.718 721.297 264.424 716L264.497 715.425C265.054 711.243 265.651 706.418 267.035 702.455C270.009 693.939 275.226 686.516 279.315 678.565C281.526 674.266 283.226 669.669 285.054 665.196L236.378 646.608L231.901 645.042C238.92 650.656 246.314 656.482 252.09 663.398C259.119 671.815 263.671 682.877 264.97 693.75C265.732 700.124 265.742 709.011 263.446 715.085C262.731 716.976 259.313 721.923 260 723.588C261.008 722.81 261.573 721.857 262.25 720.804C262.844 723.184 263.075 725.626 263.672 727.994C264.505 731.296 265.868 734.466 266.689 737.802C267.088 733.518 268.412 729.688 269.574 725.572C272.065 716.748 275.09 707.877 278.419 699.336C281.02 692.665 284.109 685.7 285.194 678.581L285.415 678.025L285.194 678.581ZM784.393 707.796C790.961 703.461 796.685 695.772 800.062 688.754C799.677 697.154 797.908 704.538 793.667 711.836C792.188 714.382 790.219 716.663 788.774 719.188L788.343 719.556L788.003 719.877L788.343 719.556L788.774 719.188C795.164 715.928 801.748 710.458 806.825 705.446C813.553 698.805 818.449 691.43 818.451 681.661C818.452 675.143 816.963 665.395 813.635 659.764C812.689 658.163 811.169 656.778 809.852 655.475C808.461 659.145 807.049 662.584 804.694 665.754C796.843 676.321 785.294 683.266 773.685 688.991C750.431 700.461 725.911 706.812 700.332 710.407C657.83 716.379 613.94 713.916 571.66 707.343C514.227 698.413 458.152 681.836 403.567 662.075C372.749 650.919 342.375 638.373 311.851 626.433C286.258 616.422 260.4 607.79 235.704 595.544C228.843 592.141 222.084 589.11 215.937 584.472L215.531 624.018C216.733 625.764 218.148 627.304 219.553 628.886L220.451 589.735C224.818 591.779 229.024 594.353 233.306 596.598C242.887 601.625 252.516 606.53 262.391 610.958C285.162 621.166 308.864 628.486 332.051 637.529C337.388 639.61 342.469 642.206 347.706 644.514C355.421 647.914 363.28 651.066 371.144 654.109C412.12 669.964 454.466 683.798 496.781 695.578C566.584 715.011 638.679 726.66 711 716.039C735.389 712.457 758.554 706.787 781.082 696.569C788.029 693.418 794.286 688.989 800.919 685.245L784.393 707.796L784.12 707.997L784.393 707.796ZM189.602 688.549C204.465 689.321 217.064 692.679 229.641 700.713L229.884 700.913L229.641 700.713C227.053 694.172 224.773 687.908 223.529 680.936C221.981 672.257 222.249 663.384 222.925 654.631C223.243 650.515 223.243 646.267 224.576 642.324C217.366 638.287 209.192 632.482 206.25 624.42C203.278 616.277 204.527 605.854 204.69 597.266C204.82 590.365 204.507 582.938 206.069 576.211C208.292 566.632 212.079 557.748 216.298 548.918C208.76 523.886 214.744 499.73 221.63 475.409C226.209 459.236 231.426 443.246 235.793 427.015C242.151 403.382 246.972 378.172 245.042 353.614C244.702 349.283 244.886 340.358 242.798 336.552C241.017 333.305 239.45 330.958 238.626 327.25C237.096 320.362 237.873 312.596 241.852 306.633C245.495 301.175 251.09 299.475 257.138 298.227C263.592 300.233 266.672 303.302 271.282 307.984C291.388 328.404 318.742 341.138 346.897 345.661C357.563 347.374 368.201 347.716 378.972 347.809L374.936 253.7L364.134 251.687L362.625 233.304C384.093 224.142 405.053 214.224 425.552 203.036C454.757 187.097 482.771 169.324 511.272 152.205L523.061 144.652C459.512 142.918 393.231 159 337.859 190.508C314.925 203.558 293.021 218.254 272.942 235.406C217.471 282.795 177.064 346.551 157.896 416.908C139.97 482.706 141.483 551.482 160.192 616.88C167.304 641.74 176.783 666.052 189.602 688.549ZM200.535 706.077L200.722 706.327C201.771 709.186 204.217 711.936 206.141 714.275C212.454 721.949 220.132 729.404 228.847 734.314C231.847 736.003 235.057 737.896 238.163 739.359C239.547 740.012 240.896 740.263 242.114 741.25C241.626 742.374 241.316 743.017 241.487 744.25L242.25 744.356L243.621 742.75L244.35 742.75C244.445 744.313 244.238 745.16 245.25 746.389L246.75 744.667C247.867 745.704 248.471 746.689 249.196 748.03L249.467 748.538L250.077 748.658C250.502 747.513 250.207 747.998 250.902 747.167L253.034 749.148L258.347 753.364L248.25 740.755C244.874 740.593 241.895 738.276 239.038 736.621C234.42 733.947 229.697 731.222 225.471 727.952C216.775 721.222 209.201 713.278 200.722 706.327L200.535 706.077ZM423.99 717.496L423.661 717.825C417.779 723.444 412.811 730.767 407.941 737.25C403.501 743.16 399.438 749.081 395.25 755.158C389.387 763.665 383.019 773.108 380.925 783.445C382.11 781.931 382.74 780.579 383.454 778.797C386.066 772.27 389.612 765.879 393.655 760.125C395.243 757.866 397.207 755.864 398.566 753.454C399.78 751.299 402.011 749.313 403.542 747.321C409.185 739.977 414.28 732.82 419.25 725.008C420.716 722.704 422.654 720.351 423.661 717.825L423.99 717.496L424.498 716.562L423.99 717.496ZM267.093 738.003L267.037 738.997L268.249 744.486C268.746 746.547 269.199 748.762 270.01 750.722C271.464 754.231 274.345 757.493 276.341 760.75C282.566 770.912 283.686 783.331 281.216 794.746L285.149 798.451C283.862 782.121 287.734 767.247 294.964 752.679C298.211 746.138 301.978 739.785 304.781 733.037C308.207 724.789 309.813 715.995 312.657 707.556C313.809 716.655 315.332 725.624 317.704 734.489C319.921 742.777 322.972 750.863 325.016 759.183C329.23 776.333 326.548 792.822 318.952 808.561C317.172 812.249 314.864 815.703 312.767 819.219L325.818 826.682C329.787 822.847 340.676 814.003 342.144 809.5C343.636 804.921 345.092 800.664 346.04 795.922C343.805 793.727 342.987 790.633 342.028 787.723C339.188 779.102 337.763 770.151 337.71 761.074C337.613 744.327 343.082 729.562 351.308 715.12C354.215 710.018 357.603 705.144 360.349 699.964C363.475 694.067 365.05 687.585 368.041 681.78C369.026 691.358 369.736 701.027 371.243 710.538C373.185 722.797 377.079 735.105 375.952 747.641C375.472 752.984 373.999 757.963 372.69 763.142C371.44 768.082 370.51 773.523 368.533 778.21C366.298 783.505 363.137 789.297 359.899 794.066C357.9 797.013 354.608 800.009 353.28 803.235L353.078 803.436L353.28 803.235C355.401 802.327 357.524 800.2 359.431 798.854C364.406 795.342 369.46 791.937 374.5 788.518C373.026 780.608 372.157 772.631 373.882 764.681C378.143 745.042 391.571 727.03 407.951 715.702C418.376 708.492 429.81 702.828 440.446 695.917L355.065 665.966C352.991 671.902 352.022 677.854 349.349 683.619C329.374 680.521 310.518 673.673 291.236 667.951C292.801 673.421 294.92 678.702 296.25 684.245C298.839 695.033 298.981 707.511 295.235 718.024C291.435 728.69 281.122 740.149 270.805 744.791C269.622 745.323 269.408 744.916 268.249 744.486C269.447 739.827 273.441 736.315 276.495 732.75C278.335 730.601 281.861 726.793 281.584 724C282.42 723.463 283.086 723.047 283.692 722.25L282.697 721.354C283.914 720.076 284.898 718.686 285.919 717.25L285.25 715.796C286.265 714.824 287.146 713.973 287.873 712.75L286.846 711.75L286.901 710.941L288.58 709.75L288.22 708.317C288.42 707.487 288.586 707.043 289.096 706.331C289.733 705.442 288.765 705.029 288.632 703.75C289.409 703.078 289.939 702.62 290.505 701.75L289.508 700.5C289.702 699.636 289.894 698.955 290.292 698.154L290.639 697.5L289.675 696.343C290.736 694.074 289.856 692.425 289.825 690.106C289.757 685.069 289.283 680.35 287.947 675.483C287.904 679.264 287.854 683.045 287.773 686.825C287.736 688.54 287.358 690.2 288.25 691.694C287.242 694.263 287.396 697.578 286.917 700.329C285.385 709.143 283.007 718.215 278.699 726.115C276.432 730.271 271.673 737.691 267.037 738.997L267.093 738.003ZM231.101 748.109L231.306 748.342C242.718 762.723 257.129 775.184 270.566 787.598C270.566 785.079 269.752 782.445 269.182 779.997C267.662 773.475 266.131 767.238 261.951 761.817C255.098 752.929 241.885 749.785 231.306 748.342L231.101 748.109ZM478.228 762.497C469.142 762.834 458.49 764.415 450.25 768.467L448.75 768.061L448.319 768.355C446.941 769.276 446.369 769.413 444.75 769.695C443.221 769.962 441.924 770.876 440.5 771.431C436.124 773.134 431.512 774.525 427.071 776.076C421.363 778.072 415.507 780.084 409.75 781.963C402.647 784.281 393.528 785.534 387.276 789.613L387.002 789.876L387.276 789.613C388.248 789.499 389.076 789.367 390.002 789.031C392.759 788.03 395.587 787.283 398.5 786.88C400.466 786.608 402.314 786.867 404.095 785.811C404.976 785.288 405.05 785.165 406.157 785.09C408.487 784.931 410.286 784.638 412.381 783.554C413.483 782.984 414.213 782.382 415.5 782.802L416 782.992L417.25 782.022L418.68 782.784L421 781.065C422.47 780.369 422.891 780.853 424.25 781.499C425.309 780.418 426.439 779.808 427.75 779.096C430.692 779.216 433.064 777.602 435.802 776.666C444.895 773.559 453.844 769.988 462.944 766.954C467.988 765.273 473.157 764.075 478.228 762.497L478.498 762.125L478.228 762.497ZM479.629 765.151L479.002 765.997L479.629 765.151L480.998 765.03L479.629 765.151ZM390.498 776.455C389.237 776.923 389.11 777.23 388.282 778.32L387.894 778.568L387.33 779.143L387.002 779.4L387.33 779.143L387.894 778.568L388.282 778.32C389.512 777.707 389.749 777.59 390.498 776.455L390.984 776.182C393.129 774.833 395.054 772.787 396.965 771.123C406.525 762.792 417.206 751.01 421.76 738.99C424.394 732.037 425.79 723.797 427.557 716.515C425.92 718.45 424.918 721.973 424.029 724.368C420.108 734.937 416.215 744.019 409.824 753.36C408.314 755.568 406.19 757.45 404.794 759.559C400.793 765.608 395.083 770.175 390.806 776.025L390.498 776.455ZM593.257 781.776C582.408 791.38 560.36 819.553 557.026 833.636C560.919 828.505 563.845 822.684 567.561 817.4C573.133 809.475 578.859 801.659 584.618 793.869C587.38 790.133 591.338 785.943 593.257 781.776L593.497 781.548L593.257 781.776ZM582.794 785.358L582.387 786.239L582.099 786.402C579.641 787.634 577.7 789.584 575.693 791.435C570.542 796.187 565.242 801.727 562.933 808.5C561.991 811.263 561.408 813.953 561.523 816.874C564.507 808.799 567.688 801.379 573.782 795.123C576.508 792.324 579.811 789.551 582.099 786.402L582.387 786.239L582.794 785.358L583.497 785.11L582.794 785.358ZM593.71 792.056C591.546 794.894 590.208 798.221 588.356 801.264C584.722 807.237 580.634 813.305 576.578 819.003C573.608 823.175 570.4 827.4 567.177 831.383C565.244 833.772 562.462 836.461 561.247 839.263L561.003 839.468L561.247 839.263L561.758 839.039C564.228 837.695 566.657 834.569 568.541 832.519C575.373 825.085 581.264 816.833 586.379 808.142C589.319 803.146 592.319 797.723 593.71 792.056L593.997 791.503L593.71 792.056ZM344.78 837.179L344.572 837.413L344.78 837.179C347.137 836.135 349.12 834.124 351.407 832.859C354.838 830.962 358.32 829.342 361.75 827.524C363.024 826.848 364.08 825.834 365.396 825.224C367.436 824.278 369.674 823.854 371.75 823.009C373.385 822.343 375.281 820.98 377.017 820.864C379.16 820.721 381.008 819.124 383 818.405C384.641 817.813 385.242 817.675 386.75 818.476C388.012 817.442 388.767 816.996 390.359 816.644C392.435 816.184 392.988 815.631 395 816.533C396.76 815.853 398.123 815.013 399.642 813.898L399.306 813.163C397.519 812.978 395.482 813.568 393.702 813.879C389.702 814.578 385.711 815.376 381.759 816.309C371.368 818.763 360.248 824.86 351.608 831.068C349.13 832.848 346.404 834.543 344.78 837.179ZM537.759 853.233L537.426 853.602L537.122 853.997L537.426 853.602L537.759 853.233C541.924 849.847 546.699 847.38 550.69 843.787L551.457 829C552.038 823.744 553.595 818.631 555.039 813.556C556.021 810.104 556.843 806.531 558.311 803.243C561.867 795.281 567.546 790.059 574.383 784.872C584.392 777.28 596.17 771.313 607.886 766.826C605.724 776.234 603.677 785.717 600.533 794.859C598.037 802.119 594.823 808.949 591.376 815.799C599.934 813.805 607.929 812.587 616.75 813.518C624.318 814.317 632.063 816.749 639.5 818.459C643.425 819.362 649.182 819.956 652.677 821.868C653.876 822.524 653.881 823.03 654.294 824.25C653.773 825.06 653.359 825.55 652.52 826.06C644.644 830.849 635.697 834.275 627.425 838.351C622.076 840.986 616.897 843.975 611.378 846.25C603.085 849.667 594.001 851.767 585 851.479C576.507 851.207 567.791 848.812 559.595 846.695C553.411 849.767 546.542 850.738 540.446 853.643C534.515 856.47 529.307 863.821 525.734 869.106C543.064 860.384 564.188 854.77 583.447 859.188C591.965 861.142 600.099 864.523 608.597 866.57L642.949 853.623C675.328 840.218 705.375 822.205 733.245 801.045C785.151 761.635 827.649 712.15 852.71 651.603C843.983 618.854 834.192 586.447 826.32 553.464C816.59 512.696 808.729 471.446 804.213 429.75C800.623 396.607 799.289 363.354 798.797 330.039L753.17 324.064C752.544 340.708 754.637 358.232 755.944 374.86C763.066 465.433 782.932 555.291 809.469 642.073C814.21 644.39 818.188 647.661 821.581 651.7C828.854 660.357 830.133 677.343 829.09 688.133L828.768 690.108C825.169 707.404 809.506 719.941 795.437 729.115C765.627 748.555 728.615 755.024 693.75 757.67C663.036 760.001 632.632 758.936 602.104 754.913C591.252 753.484 580.286 752.077 569.578 749.804C551.651 745.999 534.112 741.71 516.669 736.03C506.482 732.712 495.99 729.572 487.443 722.863C481.232 717.986 477.77 712.332 473.558 705.855L443.827 696.536C438.595 704.398 435.158 713.522 433.261 722.75C431.864 729.546 431.079 736.563 428.691 743.112C426.387 749.43 422.146 755.258 418.527 760.904C440.182 753.476 462.97 753.601 485.5 755.465C496.468 756.372 507.547 757.543 518.136 760.685C508.107 762.558 497.974 762.855 488.385 766.858C473.934 772.89 462.224 782.847 449.154 791.171C444.644 794.044 440.111 797.153 435.051 798.979C426.326 802.128 416.689 802.706 407.502 802.432C401.045 802.24 394.367 801.304 388.068 799.887C385.067 799.212 381.66 798.498 379.042 796.803C377.732 795.954 376.639 794.705 375.576 793.574C369.12 798.866 361.863 803.275 355.082 808.157C346.15 814.587 338.183 821.588 330.415 829.369C332.899 831.139 335.686 832.353 338.428 833.668C343.558 829.81 348.344 825.484 353.557 821.736C360.813 816.519 369.42 812.046 377.88 809.149C391.189 804.591 407.34 803.278 421.219 805.506C428.337 806.649 435.144 808.794 442 810.962C449.884 813.455 457.815 816.201 465.252 819.837C458.148 818.825 449.652 817.964 442.626 819.71C436.984 821.112 431.489 824.761 426.749 828C418.418 833.691 410.416 840.304 401.828 845.546C395.358 849.496 388.645 851.847 381.483 854.152L384.646 855.341L409.819 847.78C415.728 846.28 422.028 844.835 428.135 844.552C440.862 843.964 452.827 846.614 465 849.932C472.59 852.001 480.609 854.43 487.393 858.459C482.916 848.538 480.56 839.715 482.756 828.802C483.758 823.822 485.548 818.967 486.842 814.052C488.64 807.225 489.677 800.318 490.853 793.367C492.464 801.583 495.684 809.538 499.446 816.983C505.357 828.682 515.502 842.786 515.929 856.318C516.087 861.356 514.697 866.085 512.463 870.56C511.338 872.814 507.065 877.896 507.111 879.832C508.315 879.854 509.617 880.102 510.709 879.562C512.4 878.724 514.078 876.294 515.324 874.847C521.088 868.157 525.974 861.399 528.476 852.854C525.617 843.425 521.379 833.389 520.195 823.594C518.537 809.88 525.113 795.887 529.726 783.298C532.636 775.356 535.416 767.379 538.56 759.523C540.932 766.618 542.568 774.034 544.559 781.251C547.312 791.227 550.979 801.582 551.362 811.973C551.614 818.788 550.17 826.424 547.92 832.861C545.385 840.113 541.193 845.987 537.949 852.824L537.759 853.233ZM489.069 826.154L489.024 826.454C488.772 827.422 488.527 828.244 488.47 829.255C487.94 838.564 490.64 848.267 494.861 856.5C495.996 858.714 497.066 861.106 498.708 862.986L499.122 863.714L499.658 864.827L499.998 865.397L499.658 864.827L499.122 863.714L498.708 862.986C496.855 856.037 492.257 849.845 490.676 842.718C490.139 840.3 489.697 837.74 489.568 835.265C489.439 832.799 490.286 828.066 489.069 826.154ZM532.923 145.482C523.735 152.562 515.268 160.529 506.528 168.142C494.496 178.624 482.159 188.843 469.386 198.412C457.411 207.383 444.941 215.863 432.318 223.89C422.688 230.014 412.575 235.896 403.358 242.607L438.612 250.516L449.224 253.257C454.219 248.4 461.081 244.475 466.773 240.384C474.131 235.096 481.267 229.463 488.366 223.836C509.778 206.863 530.288 188.115 548.771 167.994C554.45 161.812 559.745 155.232 565.145 148.806L532.923 145.482ZM600.564 155.273C592.863 166.212 585.162 177.116 576.682 187.473C553.11 216.266 526.128 241.59 495.57 262.835L536.959 270.116L541.731 271.096C569.799 250.868 594.916 225.899 616.303 198.75C624.304 188.593 631.478 177.942 639.187 167.589C630.988 164.64 622.782 161.83 614.468 159.219C609.947 157.799 605.215 156.152 600.564 155.273ZM676.356 183.72C655.463 213.799 629.782 242.726 601.029 265.558C594.636 270.634 587.764 275.096 581.041 279.714L613.889 285.453L625.418 287.774L626.045 287.142C632.752 280.44 640.484 274.709 647.43 268.221C663.558 253.156 678.22 236.92 691.64 219.41C696.374 213.234 701.42 206.883 705.238 200.099C699.556 195.69 692.871 192.4 686.534 189.042C683.156 187.252 679.897 185.173 676.356 183.72ZM740.211 224.359C724.317 244.191 707.015 262.184 687.732 278.75C681.014 284.521 673.489 289.337 666.916 295.215L700.309 300.347L712.548 302.442C727.371 293.998 740.554 282.15 752.644 270.209C758.645 264.282 765.232 257.707 769.898 250.651C760.671 241.474 750.861 231.898 740.211 224.359ZM369.568 240.294C369.689 241.239 369.748 243.875 370.469 244.368C372.427 245.706 376.567 246.192 378.928 246.774C384.46 248.136 389.958 249.645 395.484 251.036C441.664 262.659 488.459 271.468 535.206 280.424C570.537 287.193 605.787 294.265 641.2 300.628C650.254 302.255 659.403 303.459 668.475 305.017C691.867 309.034 715.336 313.199 738.821 316.615C748.719 318.055 758.685 318.999 768.598 320.347C788.241 323.018 808.984 326.664 828.84 326.503C828.137 325.166 827.572 323.144 826 322.802C822.367 322.013 817.378 322.549 813.585 322.377C808.627 322.151 803.665 321.518 798.728 321.012C777.548 318.843 756.283 315.775 735.25 312.478C685.886 304.743 636.577 296.476 587.451 287.343C572.6 284.583 557.869 281.179 543.021 278.395C519.016 273.893 495.127 269.162 471.189 264.325C437.066 257.43 402.976 250.165 369.568 240.294ZM407.867 260.457L411.573 342.43C421.155 339.84 430.232 336.203 438.464 330.574C441.831 328.15 445.431 325.744 447.985 322.422C448.148 317.968 448.021 313.236 448.616 308.827C449.02 305.838 450.609 303.228 450.774 300.177C451.326 290.001 449.736 279.487 449.435 269.294L407.867 260.457ZM493.483 278.689C493.614 286.871 494.222 295.027 494.783 303.189C495.131 308.244 494.862 313.649 496.641 318.44C500.738 329.477 503.455 341.278 506.917 352.547C511.384 367.085 517.268 381.191 519.425 396.31C524.625 399.781 531.798 404.99 533.345 411.516L533.564 412.75L533.703 413.433C534.251 416.408 533.745 420.147 533.042 423.087C537.571 429.379 540.5 435.058 542.565 442.545C546.499 444.481 549.364 446.934 552.375 450.081L534.453 286.774L493.483 278.689ZM796.026 278.953L758.314 309.809L778.62 312.266L795.054 314.734L813.623 302.792C808.101 294.869 802.531 286.075 796.026 278.953ZM579.01 295.445L606.993 512.883C618.609 517.164 625.129 525.449 630.244 536.476L635.98 550.638L658.772 562.078C646.363 509.184 635.955 455.342 629.918 401.317C627.469 379.397 625.354 357.395 623.821 335.391C623.073 324.663 622.963 313.824 622.062 303.124L579.01 295.445ZM466.086 302.549C463.054 303.936 460.605 305.737 459.456 309C458.977 310.362 458.78 311.569 459.048 313C461.65 314.134 466.507 313.297 469.453 313.547C474.299 316.381 477.362 320.417 480.44 325.012C487.329 335.29 491.321 345.968 494.427 357.885L507.438 415.14L508 415.839C509.934 412.633 510.948 408.262 512.355 404.715C507.262 387.01 501.706 369.544 496.295 351.933C492.653 340.079 489.88 327.138 484.14 316.114C481.607 311.249 478.083 306.416 473.098 303.831C470.921 302.702 468.495 302.463 466.086 302.549ZM256.207 308.33L251.859 311.057C274.597 340.669 311.377 360.103 348.274 364.894C364.275 366.971 379.744 366.562 395.734 364.428C415.969 361.727 436.35 356.192 452.696 343.389C457.578 339.565 462.069 335.156 465.859 330.248C466.821 328.752 467.662 327.489 468.092 325.75C467.714 324.7 467.031 323.983 466 323.553L460.622 322.227C451.039 338.966 432.99 347.897 414.97 352.809C375.315 363.619 331.576 360.049 295.545 339.471C283.925 332.835 273.225 324.652 263.87 315.085C262.13 313.306 258.659 308.27 256.207 308.33ZM665.866 310.697C665.318 315.302 665.996 320.247 666.25 324.871C666.785 334.601 667.499 344.29 668.32 354C672.836 407.452 680.103 460.276 691.788 512.654C696.692 534.635 702.031 556.829 709.038 578.241C724.202 581.399 740.288 585.139 754.231 592.01C749.814 573.331 743.852 555.033 739.476 536.312C726.415 480.433 717.488 424.3 712.712 367.12C711.357 350.902 709.577 334.279 709.443 318.02L665.866 310.697ZM248.625 317.82C248.718 326.39 252.562 333.297 258.581 339.25C282.577 362.986 317.5 376.284 350.247 381.835C361.761 383.787 373.331 385.099 385.022 384.966C394.859 384.854 404.743 383.934 414.489 382.616C420.997 381.736 427.489 380.739 433.986 379.786C438.797 379.08 444.19 378.113 449 378.867L449.994 379.018C463.453 381.12 475.28 390.66 483.093 401.485C492.423 414.411 496.141 431.725 500.755 446.754C501.135 443.538 501.476 440.31 501.929 437.104C502.168 435.418 502.726 433.284 502.519 431.607C502.283 429.692 501.085 427.505 500.326 425.714C498.976 422.527 497.623 419.368 496.475 416.1C494.09 409.255 491.972 402.45 490.588 395.324C486.217 372.819 485.259 350.331 471.793 330.737C457.203 352.656 433.971 363.329 408.904 368.391C362.734 377.714 316.465 369.341 277.256 343.008C270.39 338.396 263.886 332.925 257.984 327.138C255.048 324.26 251.917 320.194 248.625 317.82ZM257.418 354.414L257.524 361.235C268.024 370.923 280.132 378.302 293.047 384.315C323.826 398.644 355.868 403.297 389.542 401.937L416.514 400.137C415.429 412.429 416.243 424.743 417.376 437C420.352 469.183 428.844 499.473 443.345 528.374C450.059 541.753 457.738 554.518 467.339 566.038C490.344 593.641 522.31 610.185 556.29 620.453C558.313 613.161 560.236 605.844 562.209 598.539C565.517 586.287 570.43 573.111 563.325 561.101C562.72 560.078 562.195 559.47 561.296 558.714L559.75 558.601C559.463 560.378 561.237 563.011 561.898 564.75C562.875 567.32 563.658 570.185 564.178 572.887C565.872 581.691 562.841 598.146 555.164 603.853C550.665 607.197 545.176 606.339 540.072 605.379C529.903 603.467 519.837 598.201 510.848 593.251C500.639 587.256 491.45 580.824 482.745 572.75C455.501 547.481 437.876 511.514 428.508 476C424.119 459.362 421.404 441.824 420.46 424.649C420.007 416.394 419.663 407.971 420.573 399.737C434.175 397.648 448.143 393.369 460.334 402.377C463.683 404.852 467.25 408.296 469.423 411.868C470.824 414.17 471.507 417.297 472.45 419.833C476.668 431.178 480.004 442.692 483.33 454.319L492.911 456.419C491.459 450.042 489.422 443.722 487.541 437.453C482.772 421.552 476.905 403.83 462.15 394.481C457.498 391.533 451.633 389.86 446.151 389.561C437.302 389.078 427.771 391.4 418.953 392.443C403.045 394.325 386.965 395.607 370.938 395.006C344.439 394.013 318.896 388.537 294.737 377.447C282.045 371.622 267.813 363.97 257.418 354.414ZM845.518 358.335C845.144 412.045 850.437 465.055 859.395 517.958C863.206 540.465 867.424 563.395 873.528 585.401L875.086 578.62C884.768 515.998 879.513 450.963 858.971 390.902C856.298 383.087 853.213 375.489 849.971 367.894C848.74 365.01 847.614 361.469 845.918 358.87L845.518 358.335ZM257.492 371.33C256.683 377.005 256.533 382.759 255.9 388.458C254.987 396.679 253.553 404.812 251.773 412.887C250.383 419.195 248.976 425.515 247.24 431.739C245.185 439.106 242.555 446.456 241.028 453.954C237.495 471.31 239.795 488.743 250.581 503.129C254.724 508.655 259.37 513.848 263.752 519.188C274.519 532.311 285.4 545.386 295.365 559.137C304.463 571.691 312.938 585.226 317.377 600.188L323.271 601.887C315.823 569.729 294.193 544.191 273.639 519.38C264.254 508.052 253.725 496.697 249.566 482.221C243.409 460.791 252.878 436.71 256.417 415.432C258.026 405.762 258.564 396.142 258.537 386.35C258.525 381.763 258.889 375.735 257.492 371.33ZM520.254 409.295C515.447 420.498 510.462 433.547 514.525 445.75L515.037 445.75L515.48 444.899L524.081 415.528C523.118 413.227 522.248 410.927 520.254 409.295ZM444.715 415.063C439.767 416.786 436.705 419.129 434.357 423.962C432.272 428.256 432.398 433.55 434.219 437.911C435.707 441.472 438.757 444.438 442.361 445.79C445.027 446.791 448.475 446.625 451.196 446.002C455.861 444.224 459.848 441.516 461.893 436.75C463.644 432.668 463.295 428.187 461.55 424.176C459.879 420.335 456.656 417.219 452.745 415.737C450.181 414.767 447.412 414.811 444.715 415.063ZM509.334 449.337L504.547 459C505.198 460.02 506.155 460.294 507.221 460.739L507.996 460.5C508.927 457.908 511.767 452.411 509.822 449.81L509.334 449.337ZM543.544 454.713C545.171 459.898 546.531 465.05 547.418 470.417C548.479 476.829 549.251 483.296 550.008 489.75C550.699 495.645 550.575 503.102 553.853 508.112L555.282 510.25C555.644 509.631 555.926 509.168 556.116 508.471C559.675 494.017 559.065 476.428 551.317 463.232C549.516 460.164 546.457 456.746 543.544 454.713ZM518.288 460.415L516.715 464.002C517.542 465.287 518.529 466.213 519.634 467.245L520.371 466.25C519.771 464.303 519.279 462.201 518.288 460.415ZM471.292 462.177C465.772 462.819 459.705 464.158 456.067 468.776C455.059 470.057 454.343 471.328 454.579 473.016L454.75 473.777C457.135 475.005 461.486 474.082 464.317 474.044C469.008 473.982 473.723 474.125 478.394 474.562C493.522 475.98 510.893 479.049 524.537 486.031L535.622 492.249C533.097 487.896 530.377 483.47 526.719 479.961C519.254 472.8 506.646 468.598 496.844 465.974C491.816 464.628 486.684 462.978 481.5 462.469C478.03 462.128 474.779 462.004 471.292 462.177ZM453.38 467.515C448.958 469.771 445.429 472.552 443.89 477.5C442.859 480.814 443.158 485.18 444.764 488.268C446.609 491.814 450.383 494.803 454.201 495.838C457.592 496.756 461.227 496.385 464.25 494.544C466.631 493.094 468.128 491.504 469.791 489.328C471.025 486.764 471.665 484.853 471.528 482C470.195 481.086 467.787 481.279 466.137 481.174C465.577 481.983 465.396 482.643 465.124 483.569C464.459 485.835 463.108 487.829 461 489.003C458.966 490.135 456.515 489.945 454.391 489.196C452.285 488.454 450.75 486.853 449.796 484.859C448.274 481.675 448.561 478.119 449.825 474.906C450.817 472.385 452.657 470.374 453.74 467.931L453.38 467.515ZM233.848 469.959C228.398 492.318 222.675 516.525 226.392 539.596C227.684 547.615 230.245 555.3 232.854 562.966L243.221 568.854L248.655 571.843C245.727 562.63 242.8 553.628 241.546 544C240.059 532.587 239.611 520.927 239.605 509.422C239.602 504.457 240.35 498.737 239.814 493.875C239.589 491.84 238.556 489.592 237.899 487.649C236.912 484.727 236.118 481.782 235.544 478.75C235.162 476.732 235.001 471.497 233.848 469.959ZM565.549 483.92C567.666 495.392 567.173 508.339 560.353 518.232L557.98 521.75L558.462 522.597C559.638 522.732 559.816 522.739 560.885 522.247C566.672 516.343 570.623 508.77 570.526 500.344C570.497 497.884 570.169 495.645 569.657 493.25L569.493 492.441C568.87 489.532 567.447 486.223 565.549 483.92ZM485.833 484.861C488.3 489.339 490.741 493.832 493.473 498.156C494.375 499.584 494.998 501.18 496.637 501.723L499.688 500.524L500.226 499.75L493.237 485.629L485.833 484.861ZM502.314 487.541L507.071 497.817L518.919 495.302L519.969 494.951C519.391 493.567 513.715 491.401 512.12 490.739L502.314 487.541ZM579.667 500.785C579.513 508.907 577.968 515.004 575.01 522.491L581.416 520.654C583.541 519.938 584.975 519.282 586.629 517.75C587.703 514.757 585.744 509.594 584.438 506.787C583.431 504.624 581.789 502 579.667 500.785ZM514.997 503.687C507.781 504.521 495.603 506.967 490.997 513.075C488.609 516.242 488.258 518.106 488.411 522L488.998 522.32C498.448 519.521 508.723 517.026 518.553 516.192C528.897 514.998 538.167 515.846 548.35 517.695C546.975 513.296 545.097 509.222 540.75 507.032C537.61 505.449 533.959 504.502 530.5 503.965L529.723 503.838C524.985 503.118 519.753 503.115 514.997 503.687ZM486.619 512.892C481.141 515.209 477.374 518.024 475.146 523.731C473.867 527.009 474.158 531.36 475.626 534.535C477.471 538.527 480.853 541.266 484.999 542.618C488.683 543.819 492.321 543.803 495.808 542.01C499.046 540.347 501.436 537.971 502.989 534.671C503.987 531.517 504.686 529.075 504.399 525.75C502.745 524.951 499.828 525.854 498.034 526.152C497.362 527.22 497.507 526.647 497.511 527.681C497.52 530.182 497.324 532.026 495.564 533.917C493.978 535.621 491.803 536.281 489.5 536.286C486.887 536.291 484.166 535.308 482.455 533.281C480.905 531.444 480.463 528.45 480.712 526.131C481.294 520.699 484.068 516.898 487.854 513.25L486.619 512.892ZM519.558 524.774L517.797 525.25C522.464 530.898 526.933 536.153 532.75 540.687L533.751 540.461L536.272 538.75C535.763 536.919 533.223 534.74 531.922 533.279C529.377 530.419 527.072 527.337 524.5 524.52L519.558 524.774ZM534.728 525.473L543.74 534.985L553.306 531.396L555.75 530.665L555.75 530.092C548.82 526.901 542.359 525.383 534.728 525.473ZM594.384 527.193C583.385 528.294 572.709 532.392 562.317 536.006C553.614 539.033 544.361 541.885 536.599 546.945C534.328 548.426 531.741 550.164 530.063 552.3C528.568 554.204 527.718 557.003 526.839 559.254C531.252 558.646 535.401 558.033 539.616 556.542L609.76 531.324C604.697 528.189 600.442 526.661 594.384 527.193ZM612.574 535.688L610.637 537.089C611.455 538.187 612.223 538.304 613.476 538.81L613.951 539.25C614.05 538.085 614.127 537.446 613.575 536.394L612.574 535.688ZM528.891 544.56C522.534 547.568 515.895 550.759 513.396 557.896C511.825 562.384 512.073 567.422 514.275 571.668C516.198 575.378 520.265 578.086 524.248 579.097C527.521 579.928 531.234 579.053 534.085 577.343C536.914 575.646 538.686 573.432 540.399 570.686C541.553 567.566 541.956 564.744 542.182 561.443L535.777 563.71C534.971 567.177 534.444 569.514 531.25 571.561C529.546 572.653 527.425 573.255 525.429 572.723C523.178 572.124 520.839 570.236 519.646 568.25C518.493 566.332 517.874 563.684 518.492 561.497C519.011 559.661 520.301 558.077 521.272 556.456C522.298 554.743 523.079 552.849 524.208 551.206C525.75 548.963 527.635 546.976 529.191 544.74L528.891 544.56ZM575.38 553.589L567.646 555.797C573.45 562.173 575.762 569.633 575.351 578.246C574.974 586.151 572.707 593.464 570.417 600.98C567.783 609.625 565.016 618.203 561.986 626.718C546.451 622.346 531.409 616.612 516.604 610.213C507.98 606.485 499.53 602.118 490.743 598.811C466.574 589.716 442.253 590.461 419.565 603.25C409.008 609.201 401.505 617.852 394.75 627.755L394.75 628.397L397.626 629.871L399.5 629.996C403.355 625.643 407.224 621.262 411.75 617.584C422.898 608.524 438.574 603.108 452.815 602.34C482.422 600.744 509.177 616.507 535.851 626.999C545.554 630.817 555.788 633.626 565.829 636.427C568.516 629.114 571.132 621.764 573.968 614.507C581.326 595.671 588.924 577.175 579.746 557.47C579.056 555.99 578.293 554.032 576.75 553.404L575.38 553.589ZM586.244 610.986L586.529 611.25L586.244 610.986ZM588.251 619.985L588.532 620.25L588.251 619.985ZM592.682 622.168L592.862 622.511L592.682 622.168ZM597.18 623.173L597.36 623.513L597.18 623.173ZM229.51 649.378C231.009 655.505 237.343 661.392 240.755 666.75C243.572 671.175 246.052 676.077 248.151 680.875C251.425 688.355 253.56 696.396 254.665 704.483C255.129 707.871 255.125 711.763 255.982 715.015L256.499 715.103C259.703 709.105 255.85 695.209 253.939 688.914C249.907 675.634 242.468 665.081 233.77 654.519C232.496 652.972 231.121 650.508 229.51 649.378ZM362.31 708.38C353.565 728.386 348.856 747.489 348.98 769.411C348.997 772.353 348.48 777.049 349.476 779.8L349.734 780.444C351.037 760.533 353.408 740.955 358.969 721.706C359.999 718.141 362.987 711.888 362.31 708.38ZM364.688 712.884L364.515 733.281C364.67 736.565 363.573 739.201 364.374 742.564C364.613 743.566 364.273 744.188 363.921 745.079C363.217 746.858 363.551 748.401 363.635 750.25C363.753 752.868 362.864 755.89 362.494 758.5C360.97 769.265 358.091 779.658 355.021 790.069C356.214 788.524 357.074 786.981 357.927 785.227C358.735 783.198 361.012 774.223 361.812 773.323C362.208 772.877 362.767 772.608 363.245 772.25L362.114 771.25C363.413 767.541 363.782 763.926 364.871 760.25C365.205 759.126 365.452 758.106 365.444 756.932C365.433 755.231 366.822 752.353 366.574 751C366.491 750.546 366.059 750.204 365.98 749.75C365.864 749.087 366.531 747.215 366.702 746.5C367.505 743.132 365.843 740.728 367.451 737.5L367.304 736.96C366.834 735.137 367.225 734.708 367.292 733.003C367.348 731.576 366.81 731.298 367.407 729.75L367.173 729.156C365.912 725.461 366.379 720.386 365.837 716.407C365.665 715.138 365.668 713.753 364.688 712.884ZM420.793 715.958C409.943 723.194 400.418 730.286 393.113 741.256C391.909 743.063 390.422 744.396 389.671 746.464L390.481 746.983L401.25 733.083L402.391 733.373L402.739 732.615C403.801 730.508 406.731 728.735 408.4 727.011C411.139 724.181 414.425 721.753 417.549 719.358C418.659 718.508 420.561 717.467 421.212 716.241L420.793 715.958ZM222.089 733.75L222.502 733.75L222.089 733.75ZM224.227 734.86C224.713 736.309 225.012 737.642 226.21 738.678L226.956 738.913C226.454 736.942 225.974 736.017 224.227 734.86ZM229.241 738.145L229.132 739.464L229.858 739.246L229.703 738.047L229.241 738.145ZM308.736 738.359C307.45 741.837 305.1 746.951 306.562 750.5L306.208 751.25L305.25 750.501L304.525 751.25L304.594 751.713C304.931 754.357 303.816 760.289 302.167 762.558C301.91 762.913 301.619 763.14 301.292 763.439L301.472 764.097C301.952 766.1 301.438 767.519 300.864 769.429C299.711 769.978 300.313 769.903 299.057 769.653L298.644 770.487C300.076 772.912 299.669 773.8 299.327 776.5L298.745 777.25L297.75 776.429C297.525 777.579 297.441 777.189 298.025 778.324C298.765 779.763 298.434 783.222 297.909 784.75C297.661 785.473 297.618 785.473 297.25 786.011L296.686 783.75L296.111 783.75C296.227 784.972 296.354 785.886 296.748 787.042C297.449 789.098 296.913 791.767 296.14 793.75C295.878 792.692 295.759 792.065 295.19 791.126L295.261 793.216L295.343 793.821C295.696 796.846 293.759 804.215 295.5 805.993C295.75 805.744 296.108 805.568 296.25 805.245C296.955 803.642 297.131 800.912 297.523 799.15C298.764 793.558 299.906 787.934 301.198 782.355C302.609 776.262 304.634 770.302 305.8 764.158C306.819 758.791 307.37 753.382 308.023 747.965C308.343 745.313 309.085 741.998 308.902 739.337L308.736 738.359ZM232.643 739.733L232.025 740.467L233.321 740.391L233.745 739.75L232.643 739.733ZM312.3 738.685L313.196 749.437L314.346 749.564C314.962 746.978 314.1 741.444 312.675 739.182L312.3 738.685ZM235.434 740.8L235.02 741.75L235.871 741.795L236.462 740.75L235.434 740.8ZM238.283 741.285L238.255 742.75L239.072 742.788L239.444 741.25L238.946 740.962L238.283 741.285ZM388.696 748.279C386.403 751.279 384.048 755.436 383.006 759.061L383.547 759.43L389.483 749L388.696 748.279ZM313.292 749.615L313.252 750.16C313.098 752.466 312.864 759.154 314.25 760.776L313.905 761.42C313.24 762.769 313.285 764.506 313.186 765.982L314 766.436L314.347 766.887L313.65 769.398C313.311 770.483 313.61 770.518 313.605 771.5L313.341 773C314.04 773.972 314.088 773.941 315.25 774.27C314.54 774.915 314.278 775.089 313.438 775.438C312.718 777.028 313.053 779.032 313.144 780.75L314.279 782.14L313.705 782.746C312.513 784.109 312.515 784.866 312.458 786.592C312.13 796.571 306.875 806.407 304.219 815.861L307.462 810.854C310.05 806.393 312.006 801.681 313.508 796.75C313.96 795.265 314.611 793.789 314.25 792.227C314.948 790.914 315.608 789.684 316.038 788.25L315.242 787L315.671 786.367C316.275 785.317 316.198 784.793 316.16 783.632L317.454 781.75C317.168 780.631 316.116 780.674 316.352 779.862C316.959 777.78 317.547 775.405 317.069 773.25C317.736 772.073 317.953 771.966 317.75 770.653L316.5 770.543L316.147 770.066L316.355 769.652C317.12 768.064 317.289 766.884 317.305 765.138L316.208 764L316.633 763.09C317.297 761.541 316.962 759.922 316.75 758.307C315.731 758.222 316.268 758.138 315.182 758.75C315.342 757.47 315.663 756.649 316.2 755.5L315.25 750.447L313.292 749.615ZM382.743 760.25L383.157 760.25L382.743 760.25ZM457.885 761.677C453.649 762.153 449.497 762.919 445.286 763.471C443.35 763.725 440.964 763.606 439.478 765L439.575 765.883L440.5 766.404L445.32 765.057C446.54 764.705 445.584 764.886 446.681 764.893C447.663 764.899 448.144 764.545 448.984 764.128C449.719 763.762 450.155 763.765 450.94 763.853C454.422 764.244 459.58 762.196 463.245 761.75C461.92 760.88 459.463 761.445 457.885 761.677ZM437.412 765.032C435.645 765.614 434.108 766.2 432.263 766.351C430.666 766.482 429.478 767.401 428 767.897C426.521 768.394 425.364 768.207 424.068 769.25C424.468 770.476 424.55 770.235 425.622 770.796C427.222 770.105 430.343 768.218 431.938 768.54C433.667 768.89 436.698 767.255 438.485 766.75L439.168 765.75C438.292 764.844 438.534 765.06 437.412 765.032ZM270.291 765.804C271.389 769.971 272.344 774.116 273.087 778.361C273.59 781.234 273.589 786.988 275.289 789.267C274.945 781.83 274.298 773.356 271.187 766.488L270.291 765.804ZM477.798 766.027C464.41 771.54 452.184 779.131 439 784.954C435.865 786.339 432.573 787.766 429.312 788.836C426.18 789.864 423.129 790.152 420.144 791.75L419 791.059L418.463 791.232C415.407 792.165 412.175 792.523 409 792.804C406.699 793.008 404.326 792.768 402.251 793.902C417.589 794.242 431.372 791.493 445.044 784.457C450.975 781.406 456.549 777.683 462.423 774.514C465.585 772.809 468.76 771.11 472 769.557C474.073 768.564 476.493 767.709 478.298 766.291L477.798 766.027ZM422.013 769.438C416.66 771.71 410.756 773.767 405.755 776.75L406.814 776.974C409.566 776.017 422.091 772.13 423.182 770.75L422.882 769.647L422.013 769.438ZM405.133 777.25L405.745 777.25L405.133 777.25ZM355.275 789.75L355.731 789.75L355.275 789.75ZM543.594 792.265C543.351 803.522 543.623 815.028 541.639 826.137C540.202 834.177 537.302 842.435 534.878 850.25L535.347 850.479L535.734 849.902C542.293 834.044 547.027 818.62 545.13 801.259C544.87 798.877 544.853 795.564 544.116 793.324L543.594 792.265ZM538.64 792.84C538.11 796.657 534.588 837.965 534.863 838.427C537.818 830.48 538.097 823.705 538.753 815.387C539.296 808.488 540.377 799.559 538.64 792.84ZM529.191 803.288C527.598 811.791 526.945 819.974 528.845 828.5C529.23 830.228 529.471 832.018 530.122 833.671C530.799 830.828 529.67 827.504 529.391 824.584C529.027 820.76 528.941 817.001 529.025 813.165C529.076 810.823 530.215 805.75 529.402 803.668C529.35 803.533 529.261 803.414 529.191 803.288ZM401.422 812.473C400.697 813.577 400.38 813.605 400.518 814.975C402.261 815.341 403.96 814.761 405.5 813.961L405.955 814.22C407.162 814.749 408.634 814.715 409.936 814.805L411.227 813.5L410.498 812.645L401.422 812.473ZM412.217 812.413L411.255 813.5C413.053 814.849 416.116 814.417 418.364 814.477C422.437 814.585 426.352 814.84 430.386 815.491L430.998 815.003C425.175 812.81 418.337 813.216 412.217 812.413ZM492.186 814.657C492.392 816.636 492.589 818.182 493.405 820C494.622 822.71 495.603 825.508 496.865 828.2C500.409 835.756 504.326 842.95 505.434 851.365C505.879 854.742 505.987 858.01 505.822 861.411C505.747 862.931 505.066 866.428 505.436 867.75C505.477 867.897 505.693 867.915 505.822 867.998L506.113 867.384C506.977 864.288 507.868 861.233 507.994 858C508.442 846.436 501.851 836.356 497.109 826.297C495.559 823.008 494.746 818.868 493.042 815.808C492.688 815.173 492.606 815.123 492.186 814.657ZM429.376 817.623C403.043 822.349 377.596 832.396 352.25 840.755L352.659 841.725L429.75 818.245L429.642 817.783L429.376 817.623ZM492.085 819.349C491.975 823.773 492.122 827.953 492.882 832.319C494.172 839.732 497.005 847.217 499.22 854.415C499.831 856.402 500.674 860.683 501.935 862.264L502.357 862.616C501.929 858.415 501.607 854.127 500.729 849.992C499.174 842.669 495.959 835.886 494.124 828.68C493.512 826.276 493.692 821.075 492.085 819.349ZM425.309 821.013C411.064 826.943 398.641 837.686 384 842.571C376.973 844.916 369.602 845.663 362.25 846.255L362.002 846.824L362.875 847.002C370.052 847.001 377.164 846.522 384.056 844.363C399.344 839.573 412.037 828.427 426.25 821.358L426.285 821.025L425.309 821.013ZM606.716 821.202C600.434 821.487 594.569 822.145 588.821 824.797C586.379 825.923 584.246 826.981 581.98 828.43C584.656 827.692 589.893 825.266 592.421 825.844L595.25 824.07L596.75 824.682C598.742 823.761 599.661 823.031 601.845 823.802L602.377 823.618C604.182 823.01 604.922 822.792 606.75 823.454C607.25 823.155 607.702 822.756 608.25 822.557C608.898 822.321 610.987 822.562 611.75 822.532C616.246 822.361 620.567 822.739 625.034 822.873C625.819 822.896 627.053 823.225 627.497 822.539C622.16 821.011 612.191 819.915 606.716 821.202ZM620.657 827.778C619.369 828.1 618.592 828.289 617.26 828.06C615.821 827.814 614.839 828.236 613.497 828.703L612 828.082L609.5 829.428L608.743 829.051C607.875 828.657 607.559 828.583 606.65 828.656L604.75 830.375L602.5 829.35L600.5 830.997C599.481 830.863 598.872 830.733 598 830.181L597.592 830.515C596.538 831.36 595.913 831.933 594.5 832.004L593 831.451L592.541 831.681C591.248 832.312 590.212 832.668 588.806 832.912L576.166 835.75L575.75 836.441L579.595 836.469C581.147 836.257 582.646 836.033 584.17 835.674C584.928 835.495 585.403 835.507 586.158 835.513C587.792 835.525 588.952 834.856 590.5 834.624C591.562 834.465 592.701 834.701 593.75 834.485C596.099 834.002 597.088 833.371 599.75 833.498C600.83 832.851 601.637 832.11 602.914 832.084L604 832.827C605.061 832.183 606.063 831.466 607.294 831.208L608.5 832.043L609.067 831.742C611.353 830.583 612.342 830.79 614.75 830.423C616.516 830.154 618.058 829.518 619.88 829.349L626.75 828.05L626.997 827.694L620.657 827.778ZM623.634 832.25L624.244 832.25L623.634 832.25ZM622.308 832.523C616.07 835.163 609.546 837.236 602.99 838.948C600.127 839.695 596.913 840.734 593.967 840.893C591.738 841.013 590.708 842.287 588.25 841.488L587.798 841.799C584.877 843.361 578.097 842.859 574.75 842.608L574.762 843.222C589.202 846.243 609.18 841.406 621.597 833.75L622.899 832.842L622.308 832.523ZM423.884 853.68L413.763 855.031C407.032 855.887 399.318 858.003 392.991 860.411C395.33 860.512 399.053 861.236 401.25 860.871C402.567 860.652 402.882 859.221 404.41 859.688C405.717 860.087 409.179 859.008 410.378 858.351C411.031 857.994 411.042 857.935 411.5 857.492C412.729 857.979 412.856 858.124 414.114 857.796C418.478 856.717 422.838 855.937 427.324 855.573C430.017 855.354 433.006 855.85 435.601 855.141C436.686 854.845 437.101 854.982 438.165 855.125C441.012 855.508 445.49 855.819 448.245 855.25C446.023 853.441 438.711 853.437 435.75 853.474L423.884 853.68ZM453.879 860.145C443.983 861.618 435.559 866.535 426.025 868.75L426.25 869.317L428.659 869.858C431.709 869.703 434.24 868.136 436.96 866.887C439.395 865.768 441.935 864.867 444.467 863.995C448.265 862.688 452.249 861.851 455.998 860.468L455.75 860.128L453.879 860.145ZM443.894 861.219C437.891 862.07 432.015 863.381 426.136 864.841C423.825 865.415 420.725 865.904 418.755 867.25L419.653 867.431C426.082 866.16 432.537 864.647 438.922 863.159C440.881 862.703 443.75 862.562 445.245 861.25L443.894 861.219ZM468.027 864.19C458.683 865.431 449.066 868.323 441.082 873.416L447.376 874.266L461.057 876.179C463.538 871.014 466.174 868.037 470.25 864.11L468.027 864.19ZM482.765 863.656L488.682 878.417L501.147 879.639C497.814 872.304 493.511 867.377 485.83 864.434C484.792 864.036 483.868 863.796 482.765 863.656ZM563.162 864.69L547.25 867.331L547.003 867.831L569.785 866.489L587.378 867.791C580.351 865.619 570.398 863.213 563.162 864.69ZM565.881 869.698L549.285 871.12C555.871 872.775 562.409 872.088 569.124 871.799L584.414 871.46C578.682 869.914 571.822 869.456 565.881 869.698ZM529.417 870.117C527.418 870.361 525.382 870.37 523.929 871.927L516.239 880.449L534.621 879.932L548.259 878.786C542.039 876.218 536.205 870.602 529.417 870.117ZM557.99 873.558C563.358 875.237 568.101 876.027 573.75 875.513L576.552 875.291C573.884 874.053 571.346 874.541 568.5 874.36C564.961 874.134 561.568 873.332 557.99 873.558ZM481.07 877.086L480.25 877.658L481.923 877.808L482.684 877.25C481.631 876.751 482.171 876.796 481.07 877.086Z"/>
	<path d="M1008.68 206.732L1008.92 206.517L1008.68 206.732Z"/>
	<path d="M448.574 439.792C446.946 439.641 445.307 439.468 443.812 438.75C441.666 437.72 440.025 435.949 439.224 433.703C438.433 431.488 438.563 429.372 439.618 427.25C441.106 424.257 443.682 423.002 446.716 422.046C448.069 422.003 449.443 422.108 450.75 422.484C452.524 422.994 454.276 424.597 455.048 426.256C456.204 428.741 456.203 432.175 455.061 434.646C453.71 437.572 451.478 438.747 448.574 439.792Z"/>
	<path d="M756.804 608.373L756.529 608.127L756.804 608.373Z"/>
	<path d="M742.048 609.289L741.503 609.02L742.048 609.289Z"/>
	<path d="M735.216 615.37L734.503 615.126L735.216 615.37Z"/>
	<path d="M735.216 615.37L735.378 615.8L735.216 615.37Z"/>
	<path d="M719.737 622.346L719.003 622.104L719.737 622.346Z"/>
	<path d="M719.737 622.346L719.872 622.804L719.737 622.346Z"/>
	<path d="M661.841 623.579L661.586 623.003L661.841 623.579Z"/>
	<path d="M709.512 624.5L709.06 624.045L709.512 624.5Z"/>
	<path d="M709.512 624.5L709.847 624.821L709.512 624.5Z"/>
	<path d="M669.5 625.502L669.113 625.003L669.5 625.502Z"/>
	<path d="M679.022 626.497L678.347 625.586L679.022 626.497Z"/>
	<path d="M669.5 625.502L670.199 626.502L669.5 625.502Z"/>
	<path d="M689.333 626.73L689.092 626.003L689.333 626.73Z"/>
	<path d="M679.022 626.497L679.334 626.827L679.022 626.497Z"/>
	<path d="M689.333 626.73L689.85 626.863L689.333 626.73Z"/>
	<path d="M800.062 688.754L800.372 688.503L800.062 688.754Z"/>
	<path d="M1013.24 814.212L1013.45 814.459L1013.24 814.212Z"/>
</svg>
